<svg xmlns="http://www.w3.org/2000/svg" xmlns:xlink="http://www.w3.org/1999/xlink" version="1.1" width="1000" height="1000" viewBox="0 0 1000 1000" xml:space="preserve">
<desc>Created with Fabric.js 3.5.0</desc>
<defs>
</defs>
<rect x="0" y="0" width="100%" height="100%" fill="#ffffff"/>
<g transform="matrix(1.8105 0 0 1.8699 479.2442 463.9816)" id="BACKGROUND">
<path style="stroke: none; stroke-width: 1; stroke-dasharray: none; stroke-linecap: butt; stroke-dashoffset: 0; stroke-linejoin: miter; stroke-miterlimit: 4; is-custom-font: none; font-file-url: none; fill: rgb(225,244,253); fill-rule: nonzero; opacity: 1;" transform=" translate(-239.5996, -265.0516)" d="M 438.886 381.543 c 1.447 3.147 2.707 6.352 3.41 9.724 c 3.694 17.737 -9.657 30.3 -22.32 40.15 c -14.751 11.474 -32.15 15.425 -50.398 16.63 c -18.863 1.245 -37.306 6.062 -56.663 6.282 c -63.966 0.728 -127.375 -10.701 -190.323 -22.09 c -14.233 -2.575 -28.74 -5.244 -41.462 -12.129 c -28.646 -15.485 -48.658 -43.797 -49.535 -76.593 c -0.309 -11.558 2.511 -23.621 10.08 -32.361 c 8.739 -10.09 22.84 -14.83 30.24 -25.939 c 6.284 -9.435 6.46 -21.525 6.42 -32.861 c -0.053 -14.902 -0.105 -29.804 -0.158 -44.706 c -0.066 -18.673 -0.083 -37.687 5.449 -55.521 c 5.532 -17.834 17.584 -34.632 35.079 -41.158 c 13.125 -4.896 27.713 -3.583 41.406 -6.539 c 29.423 -6.35 54.701 -32.175 84.55 -28.296 c 10.175 1.322 19.374 6.106 27.523 12.157 c 7.792 5.786 14.41 15.71 22.794 20.273 c 7.396 4.026 19.986 3.361 28.234 4.646 c 12.741 1.985 25.481 3.969 38.222 5.954 c 18.136 2.825 37.546 5.762 52.236 17.63 c 11.653 9.414 20.386 22.886 24.304 37.338 c 4.566 16.842 0.584 30.012 -7.048 45.048 c -5.639 11.109 -5.928 21.062 0.866 31.761 c 6.876 10.83 13.37 19.303 15.154 32.376 c 1.866 13.677 -0.151 27.707 -5.467 40.424 c -4.949 11.841 -12.535 23.628 -10.955 36.364 C 431.474 367.755 435.648 374.502 438.886 381.543 z" stroke-linecap="round"/>
</g>
<g transform="matrix(1.8105 0 0 1.8699 497.4468 702.6401)" id="OBJECTS">
<path style="stroke: none; stroke-width: 1; stroke-dasharray: none; stroke-linecap: butt; stroke-dashoffset: 0; stroke-linejoin: miter; stroke-miterlimit: 4; is-custom-font: none; font-file-url: none; fill: rgb(213,216,239); fill-rule: nonzero; opacity: 1;" transform=" translate(-249.653, -392.677)" d="M 14.076 392.677 c 0 3.457 105.472 6.259 235.577 6.259 s 235.577 -2.802 235.577 -6.259 c 0 -3.457 -105.472 -6.259 -235.577 -6.259 S 14.076 389.22 14.076 392.677 z" stroke-linecap="round"/>
</g>
<g transform="matrix(1.8105 0 0 1.8699 561.5548 423.9551)" id="OBJECTS">
<path style="stroke: none; stroke-width: 1; stroke-dasharray: none; stroke-linecap: butt; stroke-dashoffset: 0; stroke-linejoin: miter; stroke-miterlimit: 4; is-custom-font: none; font-file-url: none; fill: rgb(31,20,63); fill-rule: nonzero; opacity: 1;" transform=" translate(-285.0665, -243.6455)" d="M 384.237 393.244 H 185.895 c -2.209 0 -4 -1.791 -4 -4 V 98.047 c 0 -2.209 1.791 -4 4 -4 h 198.343 c 2.209 0 4 1.791 4 4 v 291.197 C 388.237 391.453 386.447 393.244 384.237 393.244 z" stroke-linecap="round"/>
</g>
<g transform="matrix(1.8105 0 0 1.8699 555.1694 423.9551)" id="OBJECTS">
<path style="stroke: none; stroke-width: 1; stroke-dasharray: none; stroke-linecap: butt; stroke-dashoffset: 0; stroke-linejoin: miter; stroke-miterlimit: 4; is-custom-font: none; font-file-url: none; fill: rgb(66,102,176); fill-rule: nonzero; opacity: 1;" transform=" translate(-281.5395, -243.6455)" d="M 380.711 393.244 H 182.368 c -2.209 0 -4 -1.791 -4 -4 V 98.047 c 0 -2.209 1.791 -4 4 -4 h 198.343 c 2.209 0 4 1.791 4 4 v 291.197 C 384.711 391.453 382.92 393.244 380.711 393.244 z" stroke-linecap="round"/>
</g>
<g transform="matrix(1.8105 0 0 1.8699 561.5532 423.9556)" id="OBJECTS">
<rect style="stroke: none; stroke-width: 1; stroke-dasharray: none; stroke-linecap: butt; stroke-dashoffset: 0; stroke-linejoin: miter; stroke-miterlimit: 4; is-custom-font: none; font-file-url: none; fill: rgb(193,198,224); fill-rule: nonzero; opacity: 1;" x="-89.241" y="-136.6455" rx="0" ry="0" width="178.482" height="273.291"/>
</g>
<g transform="matrix(1.8105 0 0 1.8699 555.1696 423.9556)" id="OBJECTS">
<rect style="stroke: none; stroke-width: 1; stroke-dasharray: none; stroke-linecap: butt; stroke-dashoffset: 0; stroke-linejoin: miter; stroke-miterlimit: 4; is-custom-font: none; font-file-url: none; fill: rgb(255,255,255); fill-rule: nonzero; opacity: 1;" x="-89.241" y="-136.6455" rx="0" ry="0" width="178.482" height="273.291"/>
</g>
<g transform="matrix(1.8105 0 0 1.8699 555.1655 155.4512)" id="OBJECTS">
<path style="stroke: none; stroke-width: 1; stroke-dasharray: none; stroke-linecap: butt; stroke-dashoffset: 0; stroke-linejoin: miter; stroke-miterlimit: 4; is-custom-font: none; font-file-url: none; fill: rgb(31,20,63); fill-rule: nonzero; opacity: 1;" transform=" translate(-281.539, -100.053)" d="M 324.871 113.167 h -86.664 V 91.939 c 0 -2.761 2.239 -5 5 -5 h 76.664 c 2.762 0 5 2.239 5 5 V 113.167 z" stroke-linecap="round"/>
</g>
<g transform="matrix(1.8105 0 0 1.8699 555.1644 130.9305)" id="OBJECTS">
<path style="stroke: none; stroke-width: 1; stroke-dasharray: none; stroke-linecap: butt; stroke-dashoffset: 0; stroke-linejoin: miter; stroke-miterlimit: 4; is-custom-font: none; font-file-url: none; fill: rgb(31,20,63); fill-rule: nonzero; opacity: 1;" transform=" translate(-281.539, -86.94)" d="M 281.539 66.765 c -11.142 0 -20.175 9.033 -20.175 20.175 c 0 11.142 9.033 20.175 20.175 20.175 c 11.142 0 20.175 -9.033 20.175 -20.175 C 301.714 75.797 292.682 66.765 281.539 66.765 z M 281.539 97.027 c -5.571 0 -10.087 -4.516 -10.087 -10.087 c 0 -5.571 4.516 -10.088 10.087 -10.088 c 5.571 0 10.087 4.516 10.087 10.088 C 291.627 92.51 287.111 97.027 281.539 97.027 z" stroke-linecap="round"/>
</g>
<g transform="matrix(1.8105 0 0 1.8699 650.6471 291.9792)" id="OBJECTS">
<path style="stroke: rgb(213,216,239); stroke-width: 1; stroke-dasharray: none; stroke-linecap: butt; stroke-dashoffset: 0; stroke-linejoin: miter; stroke-miterlimit: 10; is-custom-font: none; font-file-url: none; fill: none; fill-rule: nonzero; opacity: 1;" transform=" translate(-334.279, -173.065)" d="M 343.132 183.918 h -17.706 c -1.105 0 -2 -0.895 -2 -2 v -17.706 c 0 -1.104 0.895 -2 2 -2 h 17.706 c 1.104 0 2 0.896 2 2 v 17.706 C 345.132 183.023 344.236 183.918 343.132 183.918 z" stroke-linecap="round"/>
</g>
<g transform="matrix(1.8105 0 0 1.8699 655.6501 279.583)" id="OBJECTS">
<path style="stroke: none; stroke-width: 1; stroke-dasharray: none; stroke-linecap: butt; stroke-dashoffset: 0; stroke-linejoin: miter; stroke-miterlimit: 4; is-custom-font: none; font-file-url: none; fill: rgb(233,90,79); fill-rule: nonzero; opacity: 1;" transform=" translate(-337.0421, -166.4359)" d="M 317.317 170.055 c 3.581 3.581 7.163 7.163 10.744 10.744 c 0.955 0.955 2.579 0.957 3.535 0 c 8.391 -8.391 16.781 -16.781 25.172 -25.172 c 2.278 -2.278 -1.256 -5.815 -3.536 -3.535 c -8.391 8.39 -16.781 16.781 -25.172 25.172 c 1.178 0 2.357 0 3.535 0 c -3.581 -3.581 -7.163 -7.163 -10.744 -10.744 C 318.574 164.241 315.037 167.775 317.317 170.055 L 317.317 170.055 z" stroke-linecap="round"/>
</g>
<g transform="matrix(1.8105 0 0 1.8699 650.6471 370.7223)" id="OBJECTS">
<path style="stroke: rgb(213,216,239); stroke-width: 1; stroke-dasharray: none; stroke-linecap: butt; stroke-dashoffset: 0; stroke-linejoin: miter; stroke-miterlimit: 10; is-custom-font: none; font-file-url: none; fill: none; fill-rule: nonzero; opacity: 1;" transform=" translate(-334.279, -215.175)" d="M 343.132 226.028 h -17.706 c -1.105 0 -2 -0.895 -2 -2 v -17.706 c 0 -1.105 0.895 -2 2 -2 h 17.706 c 1.104 0 2 0.895 2 2 v 17.706 C 345.132 225.133 344.236 226.028 343.132 226.028 z" stroke-linecap="round"/>
</g>
<g transform="matrix(1.8105 0 0 1.8699 655.6501 358.326)" id="OBJECTS">
<path style="stroke: none; stroke-width: 1; stroke-dasharray: none; stroke-linecap: butt; stroke-dashoffset: 0; stroke-linejoin: miter; stroke-miterlimit: 4; is-custom-font: none; font-file-url: none; fill: rgb(233,90,79); fill-rule: nonzero; opacity: 1;" transform=" translate(-337.0421, -208.5459)" d="M 317.317 212.165 c 3.581 3.581 7.163 7.163 10.744 10.744 c 0.955 0.955 2.579 0.957 3.535 0 c 8.391 -8.391 16.781 -16.781 25.172 -25.172 c 2.278 -2.278 -1.256 -5.815 -3.536 -3.535 c -8.391 8.391 -16.781 16.781 -25.172 25.171 c 1.178 0 2.357 0 3.535 0 c -3.581 -3.581 -7.163 -7.163 -10.744 -10.744 C 318.574 206.351 315.037 209.885 317.317 212.165 L 317.317 212.165 z" stroke-linecap="round"/>
</g>
<g transform="matrix(1.8105 0 0 1.8699 650.6471 445.8134)" id="OBJECTS">
<path style="stroke: rgb(213,216,239); stroke-width: 1; stroke-dasharray: none; stroke-linecap: butt; stroke-dashoffset: 0; stroke-linejoin: miter; stroke-miterlimit: 10; is-custom-font: none; font-file-url: none; fill: none; fill-rule: nonzero; opacity: 1;" transform=" translate(-334.279, -255.332)" d="M 343.132 266.185 h -17.706 c -1.105 0 -2 -0.895 -2 -2 v -17.706 c 0 -1.105 0.895 -2 2 -2 h 17.706 c 1.104 0 2 0.895 2 2 v 17.706 C 345.132 265.289 344.236 266.185 343.132 266.185 z" stroke-linecap="round"/>
</g>
<g transform="matrix(1.8105 0 0 1.8699 655.6501 433.4152)" id="OBJECTS">
<path style="stroke: none; stroke-width: 1; stroke-dasharray: none; stroke-linecap: butt; stroke-dashoffset: 0; stroke-linejoin: miter; stroke-miterlimit: 4; is-custom-font: none; font-file-url: none; fill: rgb(233,90,79); fill-rule: nonzero; opacity: 1;" transform=" translate(-337.0421, -248.7019)" d="M 317.317 252.321 c 3.581 3.581 7.163 7.163 10.744 10.744 c 0.955 0.955 2.579 0.957 3.535 0 c 8.391 -8.391 16.781 -16.781 25.172 -25.172 c 2.278 -2.278 -1.256 -5.815 -3.536 -3.535 c -8.391 8.39 -16.781 16.781 -25.172 25.172 c 1.178 0 2.357 0 3.535 0 c -3.581 -3.581 -7.163 -7.163 -10.744 -10.744 C 318.574 246.507 315.037 250.042 317.317 252.321 L 317.317 252.321 z" stroke-linecap="round"/>
</g>
<g transform="matrix(1.8105 0 0 1.8699 650.6471 522.1199)" id="OBJECTS">
<path style="stroke: rgb(213,216,239); stroke-width: 1; stroke-dasharray: none; stroke-linecap: butt; stroke-dashoffset: 0; stroke-linejoin: miter; stroke-miterlimit: 10; is-custom-font: none; font-file-url: none; fill: none; fill-rule: nonzero; opacity: 1;" transform=" translate(-334.279, -296.139)" d="M 343.132 306.992 h -17.706 c -1.105 0 -2 -0.895 -2 -2 v -17.706 c 0 -1.104 0.895 -2 2 -2 h 17.706 c 1.104 0 2 0.896 2 2 v 17.706 C 345.132 306.097 344.236 306.992 343.132 306.992 z" stroke-linecap="round"/>
</g>
<g transform="matrix(1.8105 0 0 1.8699 655.6501 509.7218)" id="OBJECTS">
<path style="stroke: none; stroke-width: 1; stroke-dasharray: none; stroke-linecap: butt; stroke-dashoffset: 0; stroke-linejoin: miter; stroke-miterlimit: 4; is-custom-font: none; font-file-url: none; fill: rgb(233,90,79); fill-rule: nonzero; opacity: 1;" transform=" translate(-337.0421, -289.5089)" d="M 317.317 293.128 c 3.581 3.581 7.163 7.163 10.744 10.744 c 0.955 0.955 2.579 0.957 3.535 0 c 8.391 -8.391 16.781 -16.781 25.172 -25.172 c 2.278 -2.278 -1.256 -5.815 -3.536 -3.535 c -8.391 8.391 -16.781 16.781 -25.172 25.172 c 1.178 0 2.357 0 3.535 0 c -3.581 -3.581 -7.163 -7.163 -10.744 -10.744 C 318.574 287.315 315.037 290.849 317.317 293.128 L 317.317 293.128 z" stroke-linecap="round"/>
</g>
<g transform="matrix(1.8105 0 0 1.8699 519.7858 273.2073)" id="OBJECTS">
<path style="stroke: none; stroke-width: 1; stroke-dasharray: none; stroke-linecap: butt; stroke-dashoffset: 0; stroke-linejoin: miter; stroke-miterlimit: 4; is-custom-font: none; font-file-url: none; fill: rgb(193,198,224); fill-rule: nonzero; opacity: 1;" transform=" translate(-261.997, -163.026)" d="M 306.797 164.816 h -89.6 c -0.552 0 -1 -0.448 -1 -1 v -1.58 c 0 -0.552 0.448 -1 1 -1 h 89.6 c 0.552 0 1 0.448 1 1 v 1.58 C 307.797 164.368 307.349 164.816 306.797 164.816 z" stroke-linecap="round"/>
</g>
<g transform="matrix(1.8105 0 0 1.8699 519.7858 290.4593)" id="OBJECTS">
<path style="stroke: none; stroke-width: 1; stroke-dasharray: none; stroke-linecap: butt; stroke-dashoffset: 0; stroke-linejoin: miter; stroke-miterlimit: 4; is-custom-font: none; font-file-url: none; fill: rgb(193,198,224); fill-rule: nonzero; opacity: 1;" transform=" translate(-261.997, -172.252)" d="M 306.797 174.042 h -89.6 c -0.552 0 -1 -0.448 -1 -1 v -1.58 c 0 -0.552 0.448 -1 1 -1 h 89.6 c 0.552 0 1 0.448 1 1 v 1.58 C 307.797 173.594 307.349 174.042 306.797 174.042 z" stroke-linecap="round"/>
</g>
<g transform="matrix(1.8105 0 0 1.8699 500.236 307.7095)" id="OBJECTS">
<path style="stroke: none; stroke-width: 1; stroke-dasharray: none; stroke-linecap: butt; stroke-dashoffset: 0; stroke-linejoin: miter; stroke-miterlimit: 4; is-custom-font: none; font-file-url: none; fill: rgb(193,198,224); fill-rule: nonzero; opacity: 1;" transform=" translate(-251.199, -181.477)" d="M 285.2 183.267 h -68.002 c -0.552 0 -1 -0.448 -1 -1 v -1.58 c 0 -0.552 0.448 -1 1 -1 H 285.2 c 0.552 0 1 0.448 1 1 v 1.58 C 286.2 182.82 285.752 183.267 285.2 183.267 z" stroke-linecap="round"/>
</g>
<g transform="matrix(1.8105 0 0 1.8699 519.7858 351.9503)" id="OBJECTS">
<path style="stroke: none; stroke-width: 1; stroke-dasharray: none; stroke-linecap: butt; stroke-dashoffset: 0; stroke-linejoin: miter; stroke-miterlimit: 4; is-custom-font: none; font-file-url: none; fill: rgb(193,198,224); fill-rule: nonzero; opacity: 1;" transform=" translate(-261.997, -205.136)" d="M 306.797 206.926 h -89.6 c -0.552 0 -1 -0.448 -1 -1 v -1.58 c 0 -0.552 0.448 -1 1 -1 h 89.6 c 0.552 0 1 0.448 1 1 v 1.58 C 307.797 206.478 307.349 206.926 306.797 206.926 z" stroke-linecap="round"/>
</g>
<g transform="matrix(1.8105 0 0 1.8699 519.7858 369.2005)" id="OBJECTS">
<path style="stroke: none; stroke-width: 1; stroke-dasharray: none; stroke-linecap: butt; stroke-dashoffset: 0; stroke-linejoin: miter; stroke-miterlimit: 4; is-custom-font: none; font-file-url: none; fill: rgb(193,198,224); fill-rule: nonzero; opacity: 1;" transform=" translate(-261.997, -214.361)" d="M 306.797 216.151 h -89.6 c -0.552 0 -1 -0.448 -1 -1 v -1.58 c 0 -0.552 0.448 -1 1 -1 h 89.6 c 0.552 0 1 0.448 1 1 v 1.58 C 307.797 215.704 307.349 216.151 306.797 216.151 z" stroke-linecap="round"/>
</g>
<g transform="matrix(1.8105 0 0 1.8699 500.236 386.4525)" id="OBJECTS">
<path style="stroke: none; stroke-width: 1; stroke-dasharray: none; stroke-linecap: butt; stroke-dashoffset: 0; stroke-linejoin: miter; stroke-miterlimit: 4; is-custom-font: none; font-file-url: none; fill: rgb(193,198,224); fill-rule: nonzero; opacity: 1;" transform=" translate(-251.199, -223.587)" d="M 285.2 225.377 h -68.002 c -0.552 0 -1 -0.448 -1 -1 v -1.58 c 0 -0.552 0.448 -1 1 -1 H 285.2 c 0.552 0 1 0.448 1 1 v 1.58 C 286.2 224.929 285.752 225.377 285.2 225.377 z" stroke-linecap="round"/>
</g>
<g transform="matrix(1.8105 0 0 1.8699 519.7858 427.0395)" id="OBJECTS">
<path style="stroke: none; stroke-width: 1; stroke-dasharray: none; stroke-linecap: butt; stroke-dashoffset: 0; stroke-linejoin: miter; stroke-miterlimit: 4; is-custom-font: none; font-file-url: none; fill: rgb(193,198,224); fill-rule: nonzero; opacity: 1;" transform=" translate(-261.997, -245.292)" d="M 306.797 247.082 h -89.6 c -0.552 0 -1 -0.448 -1 -1 v -1.58 c 0 -0.552 0.448 -1 1 -1 h 89.6 c 0.552 0 1 0.448 1 1 v 1.58 C 307.797 246.634 307.349 247.082 306.797 247.082 z" stroke-linecap="round"/>
</g>
<g transform="matrix(1.8105 0 0 1.8699 519.7858 444.2916)" id="OBJECTS">
<path style="stroke: none; stroke-width: 1; stroke-dasharray: none; stroke-linecap: butt; stroke-dashoffset: 0; stroke-linejoin: miter; stroke-miterlimit: 4; is-custom-font: none; font-file-url: none; fill: rgb(193,198,224); fill-rule: nonzero; opacity: 1;" transform=" translate(-261.997, -254.518)" d="M 306.797 256.308 h -89.6 c -0.552 0 -1 -0.448 -1 -1 v -1.58 c 0 -0.552 0.448 -1 1 -1 h 89.6 c 0.552 0 1 0.448 1 1 v 1.58 C 307.797 255.86 307.349 256.308 306.797 256.308 z" stroke-linecap="round"/>
</g>
<g transform="matrix(1.8105 0 0 1.8699 500.236 461.5436)" id="OBJECTS">
<path style="stroke: none; stroke-width: 1; stroke-dasharray: none; stroke-linecap: butt; stroke-dashoffset: 0; stroke-linejoin: miter; stroke-miterlimit: 4; is-custom-font: none; font-file-url: none; fill: rgb(193,198,224); fill-rule: nonzero; opacity: 1;" transform=" translate(-251.199, -263.744)" d="M 285.2 265.534 h -68.002 c -0.552 0 -1 -0.448 -1 -1 v -1.58 c 0 -0.552 0.448 -1 1 -1 H 285.2 c 0.552 0 1 0.448 1 1 v 1.58 C 286.2 265.086 285.752 265.534 285.2 265.534 z" stroke-linecap="round"/>
</g>
<g transform="matrix(1.8105 0 0 1.8699 519.7858 503.3461)" id="OBJECTS">
<path style="stroke: none; stroke-width: 1; stroke-dasharray: none; stroke-linecap: butt; stroke-dashoffset: 0; stroke-linejoin: miter; stroke-miterlimit: 4; is-custom-font: none; font-file-url: none; fill: rgb(193,198,224); fill-rule: nonzero; opacity: 1;" transform=" translate(-261.997, -286.099)" d="M 306.797 287.889 h -89.6 c -0.552 0 -1 -0.448 -1 -1 v -1.58 c 0 -0.552 0.448 -1 1 -1 h 89.6 c 0.552 0 1 0.448 1 1 v 1.58 C 307.797 287.441 307.349 287.889 306.797 287.889 z" stroke-linecap="round"/>
</g>
<g transform="matrix(1.8105 0 0 1.8699 519.7858 520.5981)" id="OBJECTS">
<path style="stroke: none; stroke-width: 1; stroke-dasharray: none; stroke-linecap: butt; stroke-dashoffset: 0; stroke-linejoin: miter; stroke-miterlimit: 4; is-custom-font: none; font-file-url: none; fill: rgb(193,198,224); fill-rule: nonzero; opacity: 1;" transform=" translate(-261.997, -295.325)" d="M 306.797 297.115 h -89.6 c -0.552 0 -1 -0.448 -1 -1 v -1.58 c 0 -0.552 0.448 -1 1 -1 h 89.6 c 0.552 0 1 0.448 1 1 v 1.58 C 307.797 296.667 307.349 297.115 306.797 297.115 z" stroke-linecap="round"/>
</g>
<g transform="matrix(1.8105 0 0 1.8699 500.236 537.8502)" id="OBJECTS">
<path style="stroke: none; stroke-width: 1; stroke-dasharray: none; stroke-linecap: butt; stroke-dashoffset: 0; stroke-linejoin: miter; stroke-miterlimit: 4; is-custom-font: none; font-file-url: none; fill: rgb(193,198,224); fill-rule: nonzero; opacity: 1;" transform=" translate(-251.199, -304.551)" d="M 285.2 306.341 h -68.002 c -0.552 0 -1 -0.448 -1 -1 v -1.58 c 0 -0.552 0.448 -1 1 -1 H 285.2 c 0.552 0 1 0.448 1 1 v 1.58 C 286.2 305.893 285.752 306.341 285.2 306.341 z" stroke-linecap="round"/>
</g>
<g transform="matrix(1.8105 0 0 1.8699 392.601 305.3282)" id="OBJECTS">
<path style="stroke: none; stroke-width: 1; stroke-dasharray: none; stroke-linecap: butt; stroke-dashoffset: 0; stroke-linejoin: miter; stroke-miterlimit: 4; is-custom-font: none; font-file-url: none; fill: rgb(31,20,63); fill-rule: nonzero; opacity: 1;" transform=" translate(-191.7477, -180.2036)" d="M 189.13 174.946 c 4.53 0.362 12.613 3.504 11.006 9.533 c -0.071 0.266 -0.173 0.538 -0.379 0.719 c -0.281 0.247 -0.687 0.274 -1.061 0.285 c -2.021 0.056 -4.217 -0.082 -5.763 -1.385 c -0.971 -0.818 -1.579 -2.019 -2.611 -2.759 c -0.595 -0.427 -1.298 -0.676 -1.989 -0.918 c -1.198 -0.42 -2.396 -0.841 -3.594 -1.261 c -0.634 -0.222 -1.35 -0.527 -1.542 -1.171 c -0.21 -0.704 0.337 -1.41 0.931 -1.843 C 185.543 175.113 187.384 174.806 189.13 174.946 z" stroke-linecap="round"/>
</g>
<g transform="matrix(1.8105 0 0 1.8699 214.3341 693.9224)" id="OBJECTS">
<path style="stroke: none; stroke-width: 1; stroke-dasharray: none; stroke-linecap: butt; stroke-dashoffset: 0; stroke-linejoin: miter; stroke-miterlimit: 4; is-custom-font: none; font-file-url: none; fill: rgb(31,20,63); fill-rule: nonzero; opacity: 1;" transform=" translate(-93.2822, -388.015)" d="M 83.885 393.314 c 0.023 0.005 0.046 0.01 0.068 0.015 c 1.89 0.383 3.821 0.311 5.738 0.327 c 3.489 0.029 6.965 0.063 10.451 -0.095 c 2.143 -0.097 3.014 -1.162 3.412 -3.149 c 0.415 -2.07 0.572 -4.192 0.464 -6.301 c -0.01 -0.205 -0.026 -0.419 -0.134 -0.593 c -0.138 -0.222 -0.397 -0.334 -0.643 -0.424 c -0.848 -0.311 -1.734 -0.519 -2.632 -0.619 c -0.616 -0.069 -1.749 -0.292 -2.272 0.101 c -0.518 0.389 -0.92 1.313 -1.285 1.847 c -0.465 0.682 -0.945 1.359 -1.537 1.938 c -1.155 1.13 -2.67 1.829 -4.218 2.295 c -1.548 0.466 -3.15 0.719 -4.724 1.086 c -1.171 0.274 -2.354 0.624 -3.326 1.333 c -0.402 0.294 -0.794 0.728 -0.726 1.221 C 82.604 392.897 83.284 393.182 83.885 393.314 z" stroke-linecap="round"/>
</g>
<g transform="matrix(1.8105 0 0 1.8699 334.7512 693.9224)" id="OBJECTS">
<path style="stroke: none; stroke-width: 1; stroke-dasharray: none; stroke-linecap: butt; stroke-dashoffset: 0; stroke-linejoin: miter; stroke-miterlimit: 4; is-custom-font: none; font-file-url: none; fill: rgb(31,20,63); fill-rule: nonzero; opacity: 1;" transform=" translate(-159.7943, -388.015)" d="M 169.191 393.314 c -0.023 0.005 -0.046 0.01 -0.068 0.015 c -1.89 0.383 -3.821 0.311 -5.738 0.327 c -3.489 0.029 -6.965 0.063 -10.451 -0.095 c -2.143 -0.097 -3.014 -1.162 -3.412 -3.149 c -0.415 -2.07 -0.572 -4.192 -0.464 -6.301 c 0.01 -0.205 0.026 -0.419 0.134 -0.593 c 0.138 -0.222 0.397 -0.334 0.643 -0.424 c 0.848 -0.311 1.734 -0.519 2.632 -0.619 c 0.616 -0.069 1.749 -0.292 2.272 0.101 c 0.517 0.389 0.92 1.313 1.285 1.847 c 0.465 0.682 0.945 1.359 1.537 1.938 c 1.155 1.13 2.67 1.829 4.218 2.295 c 1.548 0.466 3.15 0.719 4.725 1.086 c 1.171 0.274 2.354 0.624 3.326 1.333 c 0.402 0.294 0.794 0.728 0.726 1.221 C 170.472 392.897 169.792 393.182 169.191 393.314 z" stroke-linecap="round"/>
</g>
<g transform="matrix(1.8105 0 0 1.8699 304.6261 285.2498)" id="OBJECTS">
<path style="stroke: none; stroke-width: 1; stroke-dasharray: none; stroke-linecap: butt; stroke-dashoffset: 0; stroke-linejoin: miter; stroke-miterlimit: 4; is-custom-font: none; font-file-url: none; fill: rgb(31,20,63); fill-rule: nonzero; opacity: 1;" transform=" translate(-143.1545, -169.4665)" d="M 126.904 161.627 c -0.035 0.521 -0.092 1.039 -0.213 1.545 c -0.549 2.29 -2.24 3.985 -3.482 5.907 c -1.061 1.642 -1.292 3.708 -1.003 5.609 c 0.62 4.08 3.082 7.917 5.798 10.93 c 0.584 0.648 1.251 1.467 2.001 1.924 c 0.867 0.527 2.046 0.811 3.006 1.13 c 2.73 0.906 5.558 1.515 8.419 1.813 c 1.407 0.147 2.82 0.206 4.233 0.228 c 1.294 0.02 2.542 -0.721 3.699 -1.289 c 1.334 -0.655 2.61 -1.448 3.706 -2.452 c 1.17 -1.073 2.113 -2.367 3.03 -3.663 c 0.71 -1.004 1.425 -2.05 1.683 -3.252 c 0.308 -1.435 -0.059 -2.99 0.475 -4.356 c 0.339 -0.867 1.004 -1.558 1.508 -2.34 c 1.674 -2.596 -0.702 -5.744 0.658 -8.446 c 0.845 -1.679 2.559 -2.714 3.287 -4.458 c 0.689 -1.649 0.67 -3.614 -0.009 -5.262 c -1.129 -2.738 -3.691 -4.651 -6.406 -5.835 c -3.104 -1.354 -7.031 -1.807 -9.632 0.361 c -0.552 0.46 -1.016 1.017 -1.54 1.51 c -4.199 3.947 -9.637 0.804 -14.471 2.621 c -2.005 0.754 -3.786 2.324 -4.382 4.381 C 126.952 159.327 126.98 160.486 126.904 161.627 z" stroke-linecap="round"/>
</g>
<g transform="matrix(1.8105 0 0 1.8699 498.3298 314.4726)" id="OBJECTS">
<polygon style="stroke: none; stroke-width: 1; stroke-dasharray: none; stroke-linecap: butt; stroke-dashoffset: 0; stroke-linejoin: miter; stroke-miterlimit: 4; is-custom-font: none; font-file-url: none; fill: rgb(238,234,237); fill-rule: nonzero; opacity: 1;" points="18.7715,-5.049 -18.7715,-10.625 -15.5935,10.625 "/>
</g>
<g transform="matrix(1.8105 0 0 1.8699 524.1242 307.3505)" id="OBJECTS" clip-path="url(#CLIPPATH_1)">
<clipPath id="CLIPPATH_1">
	<polygon transform="matrix(1 0 0 1 -14.2478 3.8088)" id="SVGID_00000146484865915886844210000016945884884482545296_" points="18.7715,-5.049 -18.7715,-10.625 -15.5935,10.625 "/>
</clipPath>
<path style="stroke: none; stroke-width: 1; stroke-dasharray: none; stroke-linecap: butt; stroke-dashoffset: 0; stroke-linejoin: miter; stroke-miterlimit: 4; is-custom-font: none; font-file-url: none; fill: rgb(233,90,79); fill-rule: nonzero; opacity: 1;" transform=" translate(-264.3943, -181.2852)" d="M 254.447 184.958 c 0.324 1.288 0.865 2.474 1.619 3.434 c 2.645 3.365 8.896 1.131 12.012 -0.275 c 3.671 -1.656 6.25 -4.868 6.597 -8.939 c 0.094 -1.107 -0.047 -2.262 -0.596 -3.227 c -1.216 -2.136 -4.225 -2.576 -6.409 -3.067 c -2.666 -0.6 -5.478 -0.686 -8.115 0.104 C 254.93 174.376 253.282 180.322 254.447 184.958 z" stroke-linecap="round"/>
</g>
<g transform="matrix(1.8105 0 0 1.8699 312.6214 335.9756)" id="OBJECTS">
<polygon style="stroke: none; stroke-width: 1; stroke-dasharray: none; stroke-linecap: butt; stroke-dashoffset: 0; stroke-linejoin: miter; stroke-miterlimit: 4; is-custom-font: none; font-file-url: none; fill: rgb(255,187,0); fill-rule: nonzero; opacity: 1;" points="82.824,-22.1715 -84.201,-1.0845 -86.224,22.1715 86.224,-0.6565 "/>
</g>
<g transform="matrix(1.8105 0 0 1.8699 309.1236 321.3942)" id="OBJECTS">
<polygon style="stroke: none; stroke-width: 1; stroke-dasharray: none; stroke-linecap: butt; stroke-dashoffset: 0; stroke-linejoin: miter; stroke-miterlimit: 4; is-custom-font: none; font-file-url: none; fill: rgb(255,255,255); fill-rule: nonzero; opacity: 0.2;" points="-85.92,14.3735 85.92,-7.0065 84.756,-14.3735 -82.269,6.7135 "/>
</g>
<g transform="matrix(1.8105 0 0 1.8699 311.9452 350.1556)" id="OBJECTS">
<polygon style="stroke: none; stroke-width: 1; stroke-dasharray: none; stroke-linecap: butt; stroke-dashoffset: 0; stroke-linejoin: miter; stroke-miterlimit: 4; is-custom-font: none; font-file-url: none; fill: rgb(35,31,32); fill-rule: nonzero; opacity: 0.2;" points="-86.5975,7.4365 85.5945,-14.5885 86.5975,-8.2395 -85.8505,14.5885 "/>
</g>
<g transform="matrix(1.8105 0 0 1.8699 138.5372 358.0377)" id="OBJECTS">
<path style="stroke: none; stroke-width: 1; stroke-dasharray: none; stroke-linecap: butt; stroke-dashoffset: 0; stroke-linejoin: miter; stroke-miterlimit: 4; is-custom-font: none; font-file-url: none; fill: rgb(104,131,140); fill-rule: nonzero; opacity: 1;" transform=" translate(-51.4157, -208.3916)" d="M 63.368 195.509 l 2.957 22.584 l -23.317 3.146 c -2.118 0.286 -4.067 -1.199 -4.354 -3.317 l -2.112 -15.584 c -0.293 -2.164 1.26 -4.142 3.432 -4.37 L 63.368 195.509 z" stroke-linecap="round"/>
</g>
<g transform="matrix(1.8105 0 0 1.8699 120.5749 358.8275)" id="OBJECTS" clip-path="url(#CLIPPATH_2)">
<clipPath id="CLIPPATH_2">
	<path transform="matrix(1 0 0 1 9.9213 -0.4224) translate(-51.4157, -208.3916)" id="SVGID_00000115496515280325262190000001351177428301170049_" d="M 63.368 195.509 l 2.957 22.584 l -23.317 3.146 c -2.118 0.286 -4.067 -1.199 -4.354 -3.317 l -2.112 -15.584 c -0.293 -2.164 1.26 -4.142 3.432 -4.37 L 63.368 195.509 z" stroke-linecap="round"/>
</clipPath>
<polygon style="stroke: none; stroke-width: 1; stroke-dasharray: none; stroke-linecap: butt; stroke-dashoffset: 0; stroke-linejoin: miter; stroke-miterlimit: 4; is-custom-font: none; font-file-url: none; fill: rgb(201,91,89); fill-rule: nonzero; opacity: 1;" points="4.3175,-14.045 7.9535,13.193 -4.0545,14.045 -7.9535,-11.188 "/>
</g>
<g transform="matrix(1.8105 0 0 1.8699 146.6416 357.2212)" id="OBJECTS" clip-path="url(#CLIPPATH_3)">
<clipPath id="CLIPPATH_3">
	<path transform="matrix(1 0 0 1 -4.4767 0.4366) translate(-51.4157, -208.3916)" id="SVGID_00000115496515280325262190000001351177428301170049_" d="M 63.368 195.509 l 2.957 22.584 l -23.317 3.146 c -2.118 0.286 -4.067 -1.199 -4.354 -3.317 l -2.112 -15.584 c -0.293 -2.164 1.26 -4.142 3.432 -4.37 L 63.368 195.509 z" stroke-linecap="round"/>
</clipPath>
<polyline style="stroke: rgb(80,109,117); stroke-width: 1; stroke-dasharray: none; stroke-linecap: butt; stroke-dashoffset: 0; stroke-linejoin: miter; stroke-miterlimit: 10; is-custom-font: none; font-file-url: none; fill: none; fill-rule: nonzero; opacity: 1;" points="-4.7895,-13.62 -1.0825,14.102 4.7895,13.644 0.8855,-14.102 "/>
</g>
<g transform="matrix(1.8105 0 0 1.8699 466.0514 315.5837)" id="OBJECTS">
<path style="stroke: none; stroke-width: 1; stroke-dasharray: none; stroke-linecap: butt; stroke-dashoffset: 0; stroke-linejoin: miter; stroke-miterlimit: 4; is-custom-font: none; font-file-url: none; fill: rgb(238,234,237); fill-rule: nonzero; opacity: 1;" transform=" translate(-232.318, -185.688)" d="M 233.466 189.68 c -2.041 0.587 -4.209 -0.725 -4.843 -2.929 c -0.634 -2.205 0.506 -4.468 2.547 -5.055 c 2.041 -0.587 4.209 0.725 4.843 2.93 C 236.647 186.831 235.507 189.094 233.466 189.68 z" stroke-linecap="round"/>
</g>
<g transform="matrix(1.8105 0 0 1.8699 467.8278 328.6318)" id="OBJECTS">
<path style="stroke: none; stroke-width: 1; stroke-dasharray: none; stroke-linecap: butt; stroke-dashoffset: 0; stroke-linejoin: miter; stroke-miterlimit: 4; is-custom-font: none; font-file-url: none; fill: rgb(238,234,237); fill-rule: nonzero; opacity: 1;" transform=" translate(-233.2992, -192.6658)" d="M 234.206 195.818 c -1.855 0.533 -3.765 -0.445 -4.266 -2.186 c -0.501 -1.741 0.597 -3.585 2.452 -4.118 c 1.855 -0.534 3.765 0.445 4.266 2.186 C 237.16 193.441 236.062 195.285 234.206 195.818 z" stroke-linecap="round"/>
</g>
<g transform="matrix(1.8105 0 0 1.8699 463.6275 301.5371)" id="OBJECTS">
<path style="stroke: none; stroke-width: 1; stroke-dasharray: none; stroke-linecap: butt; stroke-dashoffset: 0; stroke-linejoin: miter; stroke-miterlimit: 4; is-custom-font: none; font-file-url: none; fill: rgb(238,234,237); fill-rule: nonzero; opacity: 1;" transform=" translate(-230.9792, -178.1762)" d="M 232.021 181.798 c -1.855 0.534 -3.825 -0.656 -4.401 -2.656 c -0.575 -2.001 0.462 -4.055 2.317 -4.588 c 1.855 -0.533 3.826 0.656 4.401 2.656 C 234.914 179.21 233.876 181.264 232.021 181.798 z" stroke-linecap="round"/>
</g>
<g transform="matrix(1.8105 0 0 1.8699 277.6077 576.8143)" id="OBJECTS">
<path style="stroke: none; stroke-width: 1; stroke-dasharray: none; stroke-linecap: butt; stroke-dashoffset: 0; stroke-linejoin: miter; stroke-miterlimit: 4; is-custom-font: none; font-file-url: none; fill: rgb(66,102,176); fill-rule: nonzero; opacity: 1;" transform=" translate(-128.2307, -325.3893)" d="M 106.886 347.993 c 3.678 -15.178 7.087 -30.424 9.055 -45.909 c 0.63 -4.961 1.238 -9.926 1.928 -14.879 c 0.747 -5.361 1.606 -10.46 2.671 -18.067 c 0.385 -2.75 6.071 -2.699 8.776 -3.326 c 6.754 -1.565 13.714 -0.738 20.564 -0.624 c 2.521 0.042 5.939 -1.019 7.6 1.188 c 1.774 2.358 1.734 6.511 1.893 9.311 c 1.413 24.869 -1.572 49.691 -2.268 74.529 c -0.292 10.431 -0.113 20.781 0.406 31.201 c 0.103 2.062 -0.415 4.105 -2.762 4.406 c -1.08 0.139 -3.278 0.038 -4.263 -0.527 c -2.22 -1.276 -3.614 -5.498 -4.374 -7.742 c -1.094 -3.226 -1.681 -6.597 -2.257 -9.945 c -1.066 -6.199 -1.594 -12.476 -2.015 -18.747 c -1.371 -20.435 -2.434 -33.624 -0.913 -55.837 c -2.076 11.954 -2.035 19.76 -5.702 31.325 c -3.477 10.967 -8.546 21.335 -13.791 31.545 c -2.909 5.662 -5.675 11.402 -8.833 16.931 c -1.577 2.761 -3.248 5.471 -5.078 8.072 c -1.607 2.285 -2.873 4.597 -5.885 4.95 c -1.298 0.152 -2.609 -0.002 -3.906 -0.156 c -0.359 -0.043 -0.774 -0.122 -0.943 -0.442 c -0.107 -0.203 -0.079 -0.448 -0.046 -0.675 c 0.887 -6.074 3.902 -12.007 5.532 -17.947 C 103.968 360.457 105.379 354.212 106.886 347.993 z" stroke-linecap="round"/>
</g>
<g transform="matrix(1.8105 0 0 1.8699 266.7259 482.5118)" id="OBJECTS">
<path style="stroke: none; stroke-width: 1; stroke-dasharray: none; stroke-linecap: butt; stroke-dashoffset: 0; stroke-linejoin: miter; stroke-miterlimit: 4; is-custom-font: none; font-file-url: none; fill: rgb(250,181,148); fill-rule: nonzero; opacity: 1;" transform=" translate(-122.2208, -274.9574)" d="M 118.026 269.727 c 0.384 -0.272 0.824 -0.481 1.261 -0.66 c 0.865 -0.355 1.762 -0.634 2.675 -0.834 c 2.128 -0.466 1.949 0.802 2.375 2.276 c 0.515 1.782 1.58 3.538 2.263 5.276 c 0.751 1.912 2.116 3.574 -0.083 4.819 c -1.12 0.634 -2.373 1.031 -3.654 1.158 c -0.251 0.025 -0.513 0.038 -0.745 -0.061 c -0.218 -0.094 -0.384 -0.276 -0.536 -0.46 c -0.98 -1.19 -1.936 -2.499 -2.831 -3.761 c -1.281 -1.806 -2.32 -3.355 -1.944 -5.693 c 0.069 -0.429 0.188 -0.856 0.415 -1.226 C 117.426 270.225 117.706 269.954 118.026 269.727 z" stroke-linecap="round"/>
</g>
<g transform="matrix(1.8105 0 0 1.8699 272.1952 489.2215)" id="OBJECTS">
<path style="stroke: none; stroke-width: 1; stroke-dasharray: none; stroke-linecap: butt; stroke-dashoffset: 0; stroke-linejoin: miter; stroke-miterlimit: 4; is-custom-font: none; font-file-url: none; fill: rgb(76,131,195); fill-rule: nonzero; opacity: 1;" transform=" translate(-125.2418, -278.5456)" d="M 119.172 282.617 c 2.737 0.166 5.331 0.113 7.707 -1.41 c 2.25 -1.442 3.795 -3.62 4.866 -6.032 c 0.259 -0.583 -0.603 -1.092 -0.863 -0.505 c -0.999 2.251 -2.402 4.317 -4.507 5.673 c -2.208 1.422 -4.672 1.427 -7.202 1.273 C 118.529 281.578 118.531 282.578 119.172 282.617 L 119.172 282.617 z" stroke-linecap="round"/>
</g>
<g transform="matrix(1.8105 0 0 1.8699 326.283 493.1937)" id="OBJECTS">
<path style="stroke: none; stroke-width: 1; stroke-dasharray: none; stroke-linecap: butt; stroke-dashoffset: 0; stroke-linejoin: miter; stroke-miterlimit: 4; is-custom-font: none; font-file-url: none; fill: rgb(76,131,195); fill-rule: nonzero; opacity: 1;" transform=" translate(-155.1172, -280.6698)" d="M 158.95 286.357 c -5.608 0.845 -6.685 -8.213 -7.322 -12.073 c -0.105 -0.633 -1.068 -0.365 -0.964 0.266 c 0.571 3.456 1.288 7.18 3.113 10.235 c 1.298 2.172 2.912 2.918 5.44 2.537 C 159.85 287.226 159.581 286.262 158.95 286.357 L 158.95 286.357 z" stroke-linecap="round"/>
</g>
<g transform="matrix(1.8105 0 0 1.8699 298.1897 576.7866)" id="OBJECTS">
<path style="stroke: none; stroke-width: 1; stroke-dasharray: none; stroke-linecap: butt; stroke-dashoffset: 0; stroke-linejoin: miter; stroke-miterlimit: 4; is-custom-font: none; font-file-url: none; fill: rgb(35,31,32); fill-rule: nonzero; opacity: 0.2;" transform=" translate(-139.5995, -325.3745)" d="M 150.02 265.187 c -0.083 0.001 -0.167 0.003 -0.248 0.002 c -6.85 -0.114 -13.81 -0.941 -20.564 0.624 c -2.705 0.627 -8.391 0.576 -8.776 3.326 c -0.308 2.2 -0.598 4.185 -0.874 6.033 c 1.228 1.025 2.855 1.772 4.072 2.282 c 4.504 1.887 9.268 3.039 14.071 3.856 c 5.508 0.938 13.024 -0.001 15.875 5.982 c 1.337 2.807 1.417 6.026 1.472 9.134 c 0.257 14.579 0.532 29.508 -0.742 44.173 c -0.649 7.475 -1.703 14.92 -3.338 22.245 c -1.291 5.785 -3.496 12.027 -3.706 18.099 c 0.776 1.803 1.8 3.597 3.117 4.354 c 0.984 0.565 3.183 0.666 4.263 0.527 c 2.347 -0.302 2.864 -2.344 2.762 -4.406 c -0.519 -10.419 -0.698 -20.769 -0.406 -31.201 c 0.695 -24.837 3.681 -49.66 2.268 -74.529 c -0.068 -1.204 -0.101 -2.658 -0.255 -4.112 C 156.821 268.606 153.562 266.463 150.02 265.187 z" stroke-linecap="round"/>
</g>
<g transform="matrix(1.8105 0 0 1.8699 371.9124 356.3192)" id="OBJECTS">
<path style="stroke: none; stroke-width: 1; stroke-dasharray: none; stroke-linecap: butt; stroke-dashoffset: 0; stroke-linejoin: miter; stroke-miterlimit: 4; is-custom-font: none; font-file-url: none; fill: rgb(250,181,148); fill-rule: nonzero; opacity: 1;" transform=" translate(-180.32, -207.4725)" d="M 161.727 205.227 c -0.648 0.362 -1.252 0.787 -1.766 1.326 c -2.138 2.24 -1.459 6.482 1.469 7.758 c 3.505 1.528 7.757 0.487 11.273 -0.479 c 8.379 -2.301 16.258 -6.002 23.863 -10.156 c 1.092 -0.596 2.757 -1.286 3.994 -2.236 c 0.598 -0.459 1.083 -0.982 1.369 -1.581 L 161.727 205.227 z" stroke-linecap="round"/>
</g>
<g transform="matrix(1.8105 0 0 1.8699 303.4608 413.9313)" id="OBJECTS">
<path style="stroke: none; stroke-width: 1; stroke-dasharray: none; stroke-linecap: butt; stroke-dashoffset: 0; stroke-linejoin: miter; stroke-miterlimit: 4; is-custom-font: none; font-file-url: none; fill: rgb(223,234,229); fill-rule: nonzero; opacity: 1;" transform=" translate(-142.5109, -238.2827)" d="M 162.643 220.347 c -0.629 -3.129 -1.507 -6.198 -2.731 -9.172 c -1.38 -3.355 -3.645 -7.384 -6.855 -9.323 c -3.007 -1.816 -8.94 -0.082 -12.276 0.694 c -3.144 0.732 -7.867 1.715 -10.417 3.82 c -2.355 1.943 -2.09 6.798 -1.807 9.605 c 0.326 3.232 1.116 6.406 1.403 9.643 c 0.523 5.911 -0.647 11.835 -2.046 17.602 c -1.675 6.905 -3.691 13.739 -6.35 20.328 c -0.394 0.976 -0.809 1.996 -0.701 3.043 c 0.185 1.79 1.804 3.052 3.353 3.969 c 10.197 6.035 22.68 5.108 34.133 4.545 c 0.948 -0.047 1.952 -0.122 2.727 -0.67 c 0.969 -0.685 1.34 -1.928 1.602 -3.086 c 1.416 -6.277 1.464 -12.772 1.435 -19.206 C 164.067 241.704 164.723 230.697 162.643 220.347 z" stroke-linecap="round"/>
</g>
<g transform="matrix(1.8105 0 0 1.8699 305.6383 335.0023)" id="OBJECTS">
<path style="stroke: none; stroke-width: 1; stroke-dasharray: none; stroke-linecap: butt; stroke-dashoffset: 0; stroke-linejoin: miter; stroke-miterlimit: 4; is-custom-font: none; font-file-url: none; fill: rgb(250,181,148); fill-rule: nonzero; opacity: 1;" transform=" translate(-143.714, -196.0727)" d="M 145.151 204.956 c -2.287 -0.698 -4.55 -1.475 -6.784 -2.328 c -0.231 -0.088 -0.469 -0.182 -0.641 -0.359 c -0.466 -0.478 -0.384 -1.542 -0.421 -2.168 c -0.049 -0.821 -0.018 -1.645 0.04 -2.465 c 0.105 -1.501 0.356 -3.004 0.346 -4.51 c -0.008 -1.21 -0.005 -2.474 0.547 -3.551 c 0.661 -1.291 2.026 -2.104 3.437 -2.441 c 1.41 -0.337 2.882 -0.262 4.33 -0.186 c 0.42 0.022 0.873 0.057 1.193 0.33 c 1.074 0.916 0.825 2.732 0.959 3.987 c 0.197 1.832 0.61 3.637 1.01 5.433 c 0.186 0.837 0.445 1.656 0.647 2.489 c 0.159 0.656 0.496 1.529 0.241 2.171 c -0.568 1.426 -1.822 2.734 -3.042 3.623 c -0.165 0.12 -0.34 0.238 -0.542 0.271 c -0.209 0.035 -0.42 -0.026 -0.623 -0.086 C 145.614 205.096 145.382 205.026 145.151 204.956 z" stroke-linecap="round"/>
</g>
<g transform="matrix(1.8105 0 0 1.8699 305.4346 329.3684)" id="OBJECTS">
<path style="stroke: none; stroke-width: 1; stroke-dasharray: none; stroke-linecap: butt; stroke-dashoffset: 0; stroke-linejoin: miter; stroke-miterlimit: 4; is-custom-font: none; font-file-url: none; fill: rgb(235,151,125); fill-rule: nonzero; opacity: 1;" transform=" translate(-143.6015, -193.0598)" d="M 139.371 196.929 c 2.85 1.824 6.846 2.913 10.232 1.952 c -0.135 -0.723 -0.28 -1.449 -0.444 -2.184 c -0.4 -1.796 -0.813 -3.601 -1.009 -5.433 c -0.135 -1.256 0.115 -3.072 -0.959 -3.987 c -0.32 -0.273 -0.773 -0.308 -1.193 -0.33 c -1.448 -0.077 -2.92 -0.152 -4.33 0.186 c -1.41 0.337 -2.776 1.15 -3.437 2.441 c -0.551 1.077 -0.555 2.341 -0.547 3.551 c 0.005 0.784 -0.035 1.622 -0.084 2.486 C 138.159 196.087 138.748 196.53 139.371 196.929 z" stroke-linecap="round"/>
</g>
<g transform="matrix(1.8105 0 0 1.8699 306.5979 304.2898)" id="OBJECTS">
<path style="stroke: none; stroke-width: 1; stroke-dasharray: none; stroke-linecap: butt; stroke-dashoffset: 0; stroke-linejoin: miter; stroke-miterlimit: 4; is-custom-font: none; font-file-url: none; fill: rgb(250,181,148); fill-rule: nonzero; opacity: 1;" transform=" translate(-144.2439, -179.6486)" d="M 131.265 181.332 c 0.74 5.223 3.617 10.221 8.111 13.098 c 3.439 2.201 8.547 3.341 12.237 1.089 c 4.954 -3.023 5.951 -10.364 5.824 -15.636 c -0.15 -6.234 -2.6 -13.213 -8.643 -15.987 c -4.249 -1.95 -10.905 -2.147 -13.941 1.919 C 131.709 170.024 130.495 175.89 131.265 181.332 z" stroke-linecap="round"/>
</g>
<g transform="matrix(1.8105 0 0 1.8699 376.6902 305.3259)" id="OBJECTS">
<path style="stroke: none; stroke-width: 1; stroke-dasharray: none; stroke-linecap: butt; stroke-dashoffset: 0; stroke-linejoin: miter; stroke-miterlimit: 4; is-custom-font: none; font-file-url: none; fill: rgb(250,181,148); fill-rule: nonzero; opacity: 1;" transform=" translate(-182.9593, -180.2024)" d="M 189.735 176.929 c 2.389 2.208 4.071 5.01 1.612 6.462 c -0.801 0.473 -1.782 -0.272 -2.287 -1.054 c -0.505 -0.782 -0.973 -1.748 -1.879 -1.956 c -0.703 -0.161 -1.407 0.21 -2.033 0.568 c -2.346 1.341 -4.691 2.682 -7.037 4.023 c -0.375 0.215 -0.757 0.432 -1.176 0.538 c -1.31 0.332 -2.723 -0.564 -3.26 -1.805 s -0.328 -2.702 0.245 -3.926 c 2.037 -4.351 5.083 -4.79 9.398 -4.943 C 185.872 174.748 187.832 175.171 189.735 176.929 z" stroke-linecap="round"/>
</g>
<g transform="matrix(1.8105 0 0 1.8699 297.9484 292.9998)" id="OBJECTS">
<path style="stroke: none; stroke-width: 1; stroke-dasharray: none; stroke-linecap: butt; stroke-dashoffset: 0; stroke-linejoin: miter; stroke-miterlimit: 4; is-custom-font: none; font-file-url: none; fill: rgb(31,20,63); fill-rule: nonzero; opacity: 1;" transform=" translate(-139.4664, -173.6108)" d="M 150.415 163.618 c -1.292 0.153 -2.547 0.615 -3.624 1.345 c -2.162 1.464 -3.495 3.867 -5.442 5.607 c -1.834 1.639 -4.139 2.629 -6.362 3.681 c -0.418 0.198 -0.849 0.41 -1.134 0.774 c -0.365 0.465 -0.428 1.099 -0.393 1.689 c 0.201 3.343 2.442 6.303 0.719 9.641 c -0.179 0.347 -0.401 0.683 -0.715 0.916 c -1.912 1.424 -3.625 -2.158 -4.302 -3.466 c -1.011 -1.953 -1.631 -4.106 -1.843 -6.293 c -0.424 -4.383 0.431 -10.166 3.941 -13.114 c 3.401 -2.856 7.697 -4.754 12.182 -4.776 c 1.504 -0.008 3.082 0.202 4.524 0.622 c 0.861 0.251 1.456 0.592 2.129 1.156 c 0.402 0.336 0.8 0.57 1.109 1.014 c 0.066 0.095 0.541 1.158 0.508 1.157 C 151.28 163.55 150.846 163.567 150.415 163.618 z" stroke-linecap="round"/>
</g>
<g transform="matrix(1.8105 0 0 1.8699 315.5224 320.3936)" id="OBJECTS">
<path style="stroke: none; stroke-width: 1; stroke-dasharray: none; stroke-linecap: butt; stroke-dashoffset: 0; stroke-linejoin: miter; stroke-miterlimit: 4; is-custom-font: none; font-file-url: none; fill: rgb(255,255,255); fill-rule: nonzero; opacity: 1;" transform=" translate(-149.1735, -188.2602)" d="M 143.635 187.472 c 1.905 -0.159 3.751 -0.126 5.643 -0.552 c 1.902 -0.427 3.748 -1.102 5.474 -2.009 c -0.003 0.002 -0.18 2.029 -0.243 2.242 c -0.24 0.813 -0.617 1.598 -1.12 2.282 c -1.631 2.215 -5.332 2.849 -7.649 1.384 c -0.617 -0.39 -1.138 -0.928 -1.516 -1.551 C 144.152 189.15 143.418 187.49 143.635 187.472 z" stroke-linecap="round"/>
</g>
<g transform="matrix(1.8105 0 0 1.8699 321.9081 290.3133)" id="OBJECTS">
<path style="stroke: none; stroke-width: 1; stroke-dasharray: none; stroke-linecap: butt; stroke-dashoffset: 0; stroke-linejoin: miter; stroke-miterlimit: 4; is-custom-font: none; font-file-url: none; fill: rgb(31,20,63); fill-rule: nonzero; opacity: 1;" transform=" translate(-152.7007, -172.1739)" d="M 150.289 172.627 c 1.531 -0.712 3.516 -0.884 4.744 0.468 c 0.434 0.477 1.139 -0.231 0.707 -0.707 c -1.544 -1.701 -4.028 -1.521 -5.956 -0.624 C 149.202 172.035 149.709 172.898 150.289 172.627 L 150.289 172.627 z" stroke-linecap="round"/>
</g>
<g transform="matrix(1.8105 0 0 1.8699 260.5699 603.1429)" id="OBJECTS">
<path style="stroke: none; stroke-width: 1; stroke-dasharray: none; stroke-linecap: butt; stroke-dashoffset: 0; stroke-linejoin: miter; stroke-miterlimit: 4; is-custom-font: none; font-file-url: none; fill: rgb(35,31,32); fill-rule: nonzero; opacity: 0.2;" transform=" translate(-118.8201, -339.469)" d="M 140.407 293.864 c -0.575 1.839 -0.996 3.763 -1.512 5.632 c -2.346 8.511 -5.373 17.159 -9.682 25.01 c -4.715 8.59 -11.365 15.344 -17.662 22.738 c -2.22 2.607 -4.405 5.315 -6.432 8.128 c -0.902 3.764 -1.82 7.524 -2.844 11.257 c -1.629 5.94 -4.645 11.872 -5.532 17.947 c -0.033 0.227 -0.061 0.472 0.046 0.675 c 0.168 0.321 0.583 0.4 0.943 0.442 c 1.297 0.154 2.609 0.309 3.906 0.156 c 3.013 -0.354 4.278 -2.666 5.885 -4.95 c 1.83 -2.601 3.501 -5.311 5.078 -8.072 c 3.158 -5.53 5.924 -11.27 8.833 -16.931 c 5.245 -10.21 10.314 -20.578 13.791 -31.545 c 3.667 -11.565 3.625 -19.371 5.702 -31.325 C 140.806 293.024 140.443 293.748 140.407 293.864 z" stroke-linecap="round"/>
</g>
<g transform="matrix(1.8105 0 0 1.8699 300.5965 516.7125)" id="OBJECTS">
<path style="stroke: none; stroke-width: 1; stroke-dasharray: none; stroke-linecap: butt; stroke-dashoffset: 0; stroke-linejoin: miter; stroke-miterlimit: 4; is-custom-font: none; font-file-url: none; fill: rgb(35,31,32); fill-rule: nonzero; opacity: 0.2;" transform=" translate(-140.9293, -293.247)" d="M 140.928 293.025 c -0.01 0.15 -0.019 0.295 -0.029 0.444 C 140.947 293.253 140.992 293.026 140.928 293.025 z" stroke-linecap="round"/>
</g>
<g transform="matrix(1.8105 0 0 1.8699 290.2538 392.5398)" id="OBJECTS">
<path style="stroke: none; stroke-width: 1; stroke-dasharray: none; stroke-linecap: butt; stroke-dashoffset: 0; stroke-linejoin: miter; stroke-miterlimit: 4; is-custom-font: none; font-file-url: none; fill: rgb(114,195,132); fill-rule: nonzero; opacity: 1;" transform=" translate(-135.2164, -226.8424)" d="M 140.028 221.652 c 0.024 1.577 0.047 3.154 0.071 4.731 c 0.015 0.995 0.028 2.004 -0.22 2.968 c -0.248 0.964 -0.794 1.893 -1.659 2.386 c -1.813 1.033 -4.67 -0.526 -5.691 -2.109 c -1.555 -2.412 -2.109 -5.13 -2.202 -7.988 c 3.233 -0.008 6.466 -0.017 9.7 -0.025 C 140.027 221.627 140.027 221.639 140.028 221.652 z" stroke-linecap="round"/>
</g>
<g transform="matrix(1.8105 0 0 1.8699 283.5977 316.9899)" id="OBJECTS">
<path style="stroke: none; stroke-width: 1; stroke-dasharray: none; stroke-linecap: butt; stroke-dashoffset: 0; stroke-linejoin: miter; stroke-miterlimit: 4; is-custom-font: none; font-file-url: none; fill: rgb(250,181,148); fill-rule: nonzero; opacity: 1;" transform=" translate(-131.54, -186.44)" d="M 133.832 185.117 c 1.185 2.053 1.12 4.309 -0.146 5.04 c -1.266 0.731 -3.253 -0.341 -4.438 -2.394 c -1.185 -2.053 -1.12 -4.309 0.146 -5.04 C 130.66 181.992 132.647 183.064 133.832 185.117 z" stroke-linecap="round"/>
</g>
<g transform="matrix(1.8105 0 0 1.8699 301.4323 304.2743)" id="OBJECTS">
<path style="stroke: none; stroke-width: 1; stroke-dasharray: none; stroke-linecap: butt; stroke-dashoffset: 0; stroke-linejoin: miter; stroke-miterlimit: 4; is-custom-font: none; font-file-url: none; fill: rgb(31,20,63); fill-rule: nonzero; opacity: 1;" transform=" translate(-141.391, -179.64)" d="M 142.674 179.364 c 0.288 1.337 -0.053 2.545 -0.762 2.697 c -0.709 0.153 -1.516 -0.808 -1.804 -2.145 c -0.288 -1.337 0.053 -2.545 0.762 -2.697 C 141.578 177.066 142.386 178.027 142.674 179.364 z" stroke-linecap="round"/>
</g>
<g transform="matrix(1.8105 0 0 1.8699 321.9275 299.7183)" id="OBJECTS">
<path style="stroke: none; stroke-width: 1; stroke-dasharray: none; stroke-linecap: butt; stroke-dashoffset: 0; stroke-linejoin: miter; stroke-miterlimit: 4; is-custom-font: none; font-file-url: none; fill: rgb(31,20,63); fill-rule: nonzero; opacity: 1;" transform=" translate(-152.7115, -177.2035)" d="M 154.02 177.1 c 0.108 1.364 -0.391 2.516 -1.113 2.573 c -0.723 0.057 -1.396 -1.002 -1.504 -2.366 c -0.108 -1.364 0.39 -2.515 1.113 -2.573 C 153.239 174.678 153.912 175.737 154.02 177.1 z" stroke-linecap="round"/>
</g>
<g transform="matrix(1.8105 0 0 1.8699 297.8703 296.5788)" id="OBJECTS">
<path style="stroke: none; stroke-width: 1; stroke-dasharray: none; stroke-linecap: butt; stroke-dashoffset: 0; stroke-linejoin: miter; stroke-miterlimit: 4; is-custom-font: none; font-file-url: none; fill: rgb(31,20,63); fill-rule: nonzero; opacity: 1;" transform=" translate(-139.4235, -175.5246)" d="M 141.889 173.452 c -2.418 -0.266 -4.513 1.431 -5.37 3.573 c -0.239 0.597 0.728 0.857 0.964 0.266 c 0.701 -1.751 2.463 -3.053 4.406 -2.839 C 142.527 174.522 142.522 173.522 141.889 173.452 L 141.889 173.452 z" stroke-linecap="round"/>
</g>
<g transform="matrix(1.8105 0 0 1.8699 315.5159 351.4135)" id="OBJECTS">
<polygon style="stroke: none; stroke-width: 1; stroke-dasharray: none; stroke-linecap: butt; stroke-dashoffset: 0; stroke-linejoin: miter; stroke-miterlimit: 4; is-custom-font: none; font-file-url: none; fill: rgb(255,255,255); fill-rule: nonzero; opacity: 1;" points="0.867,-4.586 -2.545,0.276 2.545,4.586 2.545,-3.703 "/>
</g>
<g transform="matrix(1.8105 0 0 1.8699 298.3359 353.7032)" id="OBJECTS">
<polygon style="stroke: none; stroke-width: 1; stroke-dasharray: none; stroke-linecap: butt; stroke-dashoffset: 0; stroke-linejoin: miter; stroke-miterlimit: 4; is-custom-font: none; font-file-url: none; fill: rgb(255,255,255); fill-rule: nonzero; opacity: 1;" points="-6.9445,-1.8235 -2.2805,-5.0515 6.9445,-0.9485 4.5635,5.0515 "/>
</g>
<g transform="matrix(1.8105 0 0 1.8699 283.2669 409.1633)" id="OBJECTS">
<path style="stroke: none; stroke-width: 1; stroke-dasharray: none; stroke-linecap: butt; stroke-dashoffset: 0; stroke-linejoin: miter; stroke-miterlimit: 4; is-custom-font: none; font-file-url: none; fill: rgb(31,20,63); fill-rule: nonzero; opacity: 1;" transform=" translate(-131.357, -235.7329)" d="M 122.924 270.961 c -2.634 0.12 -4.354 -2.105 -4.443 -4.818 c -0.031 -0.957 -0.019 -1.915 0.034 -2.871 c 0.412 -7.529 3.485 -14.472 6.127 -21.421 c 2.303 -6.059 3.715 -12.509 3.537 -19.015 c -0.142 -5.211 -1.139 -10.433 -3.098 -15.272 c -0.041 -0.102 -0.083 -0.21 -0.063 -0.318 c 0.017 -0.093 0.078 -0.171 0.138 -0.244 c 1.198 -1.452 2.82 -2.384 4.408 -3.331 c 1.725 -1.029 3.387 -1.971 5.319 -2.577 c 0.343 -0.107 1.628 -0.651 1.887 -0.589 c 1.53 0.371 3.215 5.194 3.82 6.533 c 6.344 14.052 3.783 30.827 -2.66 44.365 c -3.144 6.606 -6.752 13.143 -12.021 18.218 c -0.427 0.411 -0.881 0.823 -1.439 1.021 C 123.927 270.837 123.41 270.939 122.924 270.961 z" stroke-linecap="round"/>
</g>
<g transform="matrix(1.8105 0 0 1.8699 257.3915 420.2706)" id="OBJECTS">
<path style="stroke: none; stroke-width: 1; stroke-dasharray: none; stroke-linecap: butt; stroke-dashoffset: 0; stroke-linejoin: miter; stroke-miterlimit: 4; is-custom-font: none; font-file-url: none; fill: rgb(31,20,63); fill-rule: nonzero; opacity: 1;" transform=" translate(-117.0648, -241.6728)" d="M 108.286 232.246 c -1.799 3.041 -3.932 6.334 -4.519 9.764 c -0.754 4.38 0.448 8.51 1.818 12.681 c 2.576 7.845 6.443 15.137 10.976 21.968 c 0.186 0.28 0.435 0.593 0.771 0.571 c 0.164 -0.011 0.31 -0.105 0.447 -0.195 c 2.202 -1.454 4.404 -2.908 6.605 -4.362 c 0.348 -0.23 0.713 -0.479 0.889 -0.858 c 0.257 -0.555 0.033 -1.203 -0.192 -1.772 c -1.997 -5.046 -3.995 -10.093 -5.992 -15.139 c -0.88 -2.222 -1.768 -4.481 -1.995 -6.86 c -0.339 -3.55 0.842 -7.12 2.721 -10.15 c 1.879 -3.03 4.426 -5.585 7.045 -8.006 c 0.93 -0.86 1.897 -1.74 2.422 -2.893 c 1.682 -3.693 1.403 -7.994 1.032 -11.928 c -0.197 -2.089 0.114 -9.02 -3.197 -8.952 c -0.613 0.013 -1.157 0.378 -1.642 0.753 c -3.787 2.927 -6.272 7.098 -8.66 11.161 c -2.58 4.391 -5.358 8.649 -7.869 13.083 C 108.733 231.486 108.513 231.864 108.286 232.246 z" stroke-linecap="round"/>
</g>
<g transform="matrix(1.8105 0 0 1.8699 366.5074 414.4455)" id="OBJECTS">
<path style="stroke: none; stroke-width: 1; stroke-dasharray: none; stroke-linecap: butt; stroke-dashoffset: 0; stroke-linejoin: miter; stroke-miterlimit: 4; is-custom-font: none; font-file-url: none; fill: rgb(31,20,63); fill-rule: nonzero; opacity: 1;" transform=" translate(-177.3345, -238.5578)" d="M 165.483 258.599 c 0.152 -10.29 0.304 -20.593 -0.276 -30.874 c -0.147 -2.602 -0.349 -5.199 -0.592 -7.793 c -0.157 -1.684 -0.364 -1.607 0.863 -2.467 c 0.901 -0.631 2.451 -0.892 3.491 -1.271 c 6.322 -2.303 12.644 -4.615 18.924 -7.033 c 5.593 -2.154 11.096 -4.891 15.06 -9.52 c -5.796 1.251 -11.716 1.801 -17.62 2.348 c -7.952 0.737 -15.926 1.474 -23.91 1.267 c -3.253 -0.085 -6.808 -0.632 -9.707 -2.11 c 1.097 2.963 2.504 6.258 2.6 9.403 c 0.114 3.738 0.368 7.475 0.498 11.213 c 0.255 7.333 0.375 14.671 0.36 22.008 c -0.024 11.361 -0.832 22.353 -1.909 33.634 c 2.465 0.199 4.964 -0.024 7.355 -0.656 c 0.422 -0.112 0.855 -0.244 1.183 -0.532 c 0.336 -0.296 0.522 -0.722 0.692 -1.135 c 1.273 -3.094 2.223 -6.334 2.639 -9.654 C 165.416 263.163 165.449 260.879 165.483 258.599 z" stroke-linecap="round"/>
</g>
<g transform="matrix(1.8105 0 0 1.8699 297.8378 392.0323)" id="OBJECTS">
<path style="stroke: none; stroke-width: 1; stroke-dasharray: none; stroke-linecap: butt; stroke-dashoffset: 0; stroke-linejoin: miter; stroke-miterlimit: 4; is-custom-font: none; font-file-url: none; fill: rgb(39,65,105); fill-rule: nonzero; opacity: 1;" transform=" translate(-139.4055, -226.5715)" d="M 137.931 251.404 c 6.443 -13.538 9.004 -30.313 2.66 -44.365 c -0.604 -1.339 -2.289 -6.162 -3.82 -6.533 c -0.26 -0.063 -1.545 0.481 -1.887 0.588 c -0.112 0.035 -0.215 0.081 -0.324 0.119 c 0.136 0.648 0.507 1.129 0.838 1.858 c 0.628 1.387 0.96 2.892 1.288 4.376 c 1.454 6.566 1.645 13.413 0.531 20.047 c 0.955 -0.104 1.932 0.01 2.837 0.331 c -0.144 1.035 -0.93 1.847 -1.399 2.78 c -0.929 1.847 -0.576 4.044 -0.34 6.098 c 0.61 5.316 0.268 10.738 -0.986 15.939 C 137.529 252.229 137.734 251.818 137.931 251.404 z" stroke-linecap="round"/>
</g>
<g transform="matrix(1.8105 0 0 1.8699 324.7309 390.6255)" id="OBJECTS">
<path style="stroke: none; stroke-width: 1; stroke-dasharray: none; stroke-linecap: butt; stroke-dashoffset: 0; stroke-linejoin: miter; stroke-miterlimit: 4; is-custom-font: none; font-file-url: none; fill: none; fill-rule: nonzero; opacity: 1;" transform=" translate(-154.2598, -225.8192)" d="M 158.544 214.563 c 0.739 4.737 1.4 9.486 2.11 14.227 c -0.535 0.066 -1.088 -0.024 -1.574 -0.256 c 0.23 2.727 0.46 5.479 0.118 8.194 c -0.776 6.157 -4.424 11.667 -5.227 17.821 c -0.937 -6.749 -1.875 -13.503 -2.39 -20.296 c -0.452 -5.952 -0.58 -11.939 -1.463 -17.843 c -0.728 -4.866 -1.966 -9.668 -2.227 -14.581 c -0.06 -1.138 -0.055 -2.338 0.49 -3.339 c 0.544 -1.002 1.798 -1.706 2.851 -1.268 c 0.746 0.31 1.184 1.072 1.567 1.784 C 155.509 204.035 157.726 208.839 158.544 214.563 z" stroke-linecap="round"/>
</g>
<g transform="matrix(1.8105 0 0 1.8699 328.2163 390.0214)" id="OBJECTS">
<path style="stroke: none; stroke-width: 1; stroke-dasharray: none; stroke-linecap: butt; stroke-dashoffset: 0; stroke-linejoin: miter; stroke-miterlimit: 4; is-custom-font: none; font-file-url: none; fill: rgb(39,65,105); fill-rule: nonzero; opacity: 1;" transform=" translate(-156.185, -225.496)" d="M 160.654 228.79 c -0.71 -4.741 -1.371 -9.49 -2.11 -14.227 c -0.642 -4.496 -2.154 -8.424 -4.085 -12.341 c -0.954 -0.287 -1.88 -0.636 -2.743 -1.076 c 1.097 2.963 2.504 6.258 2.6 9.403 c 0.114 3.738 0.368 7.475 0.498 11.213 c 0.255 7.333 0.375 14.67 0.36 22.008 c -0.004 2.037 -0.042 4.059 -0.094 6.076 c 1.403 -4.366 3.544 -8.565 4.118 -13.117 c 0.342 -2.716 0.112 -5.467 -0.118 -8.194 C 159.565 228.766 160.119 228.857 160.654 228.79 z" stroke-linecap="round"/>
</g>
<g transform="matrix(1.8105 0 0 1.8699 313.1612 417.4862)" id="OBJECTS">
<path style="stroke: none; stroke-width: 1; stroke-dasharray: none; stroke-linecap: butt; stroke-dashoffset: 0; stroke-linejoin: miter; stroke-miterlimit: 4; is-custom-font: none; font-file-url: none; fill: rgb(255,255,255); fill-rule: nonzero; opacity: 1;" transform=" translate(-147.8694, -240.1838)" d="M 147.61 208.023 c 3.47 10.23 2.646 21.83 2.138 32.47 c -0.519 10.881 -3.234 21.18 -5.212 31.835 c -0.117 0.629 0.847 0.899 0.964 0.266 c 1.996 -10.759 4.723 -21.121 5.247 -32.101 c 0.512 -10.722 1.331 -22.405 -2.173 -32.736 C 148.369 207.151 147.403 207.411 147.61 208.023 L 147.61 208.023 z" stroke-linecap="round"/>
</g>
<g transform="matrix(1.8105 0 0 1.8699 788.7537 622.7643)" id="OBJECTS">
<path style="stroke: none; stroke-width: 1; stroke-dasharray: none; stroke-linecap: butt; stroke-dashoffset: 0; stroke-linejoin: miter; stroke-miterlimit: 4; is-custom-font: none; font-file-url: none; fill: rgb(106,143,188); fill-rule: nonzero; opacity: 1;" transform=" translate(-410.561, -349.962)" d="M 432.367 309.308 l -13.159 -4.661 l -6.93 12.355 l 0.419 0.148 c -2.596 -0.17 -5.173 -0.03 -7.685 0.402 l 0.402 -0.192 l -8.181 -11.564 l -12.6 6.009 l 3.836 13.636 l 0.402 -0.192 c -1.917 1.68 -3.648 3.594 -5.15 5.719 l 0.148 -0.419 l -13.962 -2.392 l -4.661 13.159 l 12.355 6.929 l 0.148 -0.419 c -0.17 2.596 -0.03 5.173 0.402 7.685 l -0.192 -0.402 l -11.564 8.181 l 6.009 12.6 l 13.636 -3.836 l -0.192 -0.402 c 1.68 1.917 3.594 3.648 5.718 5.15 l -0.419 -0.148 l -2.392 13.962 l 13.159 4.661 l 6.93 -12.355 l -0.419 -0.148 c 2.596 0.17 5.173 0.03 7.685 -0.402 l -0.402 0.192 l 8.181 11.564 l 12.6 -6.009 l -3.836 -13.636 l -0.402 0.192 c 1.917 -1.68 3.648 -3.594 5.15 -5.718 l -0.148 0.419 l 13.962 2.392 l 4.661 -13.159 l -12.355 -6.93 l -0.148 0.419 c 0.17 -2.596 0.03 -5.173 -0.402 -7.685 l 0.192 0.402 l 11.564 -8.181 l -6.009 -12.6 l -13.636 3.836 l 0.192 0.402 c -1.679 -1.917 -3.594 -3.648 -5.718 -5.15 l 0.419 0.148 L 432.367 309.308 z" stroke-linecap="round"/>
</g>
<g transform="matrix(1.3906 -1.1973 1.1592 1.4363 788.7334 622.7535)" id="OBJECTS">
<ellipse style="stroke: none; stroke-width: 1; stroke-dasharray: none; stroke-linecap: butt; stroke-dashoffset: 0; stroke-linejoin: miter; stroke-miterlimit: 4; is-custom-font: none; font-file-url: none; fill: rgb(160,179,217); fill-rule: nonzero; opacity: 1;" cx="0" cy="0" rx="28.518" ry="28.518"/>
</g>
<g transform="matrix(1.8105 0 0 1.8699 788.7561 622.7653)" id="OBJECTS">
<path style="stroke: none; stroke-width: 1; stroke-dasharray: none; stroke-linecap: butt; stroke-dashoffset: 0; stroke-linejoin: miter; stroke-miterlimit: 4; is-custom-font: none; font-file-url: none; fill: rgb(90,130,173); fill-rule: nonzero; opacity: 1;" transform=" translate(-410.563, -349.9621)" d="M 417.715 329.77 c 11.152 3.95 16.99 16.192 13.04 27.344 c -3.95 11.152 -16.192 16.99 -27.344 13.04 s -16.99 -16.192 -13.04 -27.344 C 394.32 331.659 406.563 325.82 417.715 329.77 z" stroke-linecap="round"/>
</g>
<g transform="matrix(1.8105 0 0 1.8699 788.7539 622.7654)" id="OBJECTS">
<path style="stroke: none; stroke-width: 1; stroke-dasharray: none; stroke-linecap: butt; stroke-dashoffset: 0; stroke-linejoin: miter; stroke-miterlimit: 4; is-custom-font: none; font-file-url: none; fill: rgb(255,255,255); fill-rule: nonzero; opacity: 1;" transform=" translate(-410.562, -349.962)" d="M 415.538 335.914 c 7.759 2.748 11.82 11.265 9.072 19.024 c -2.748 7.758 -11.265 11.82 -19.024 9.072 c -7.759 -2.748 -11.82 -11.265 -9.072 -19.024 C 399.263 337.228 407.78 333.166 415.538 335.914 z" stroke-linecap="round"/>
</g>
<g transform="matrix(1.8105 0 0 1.8699 761.7681 477.8446)" id="OBJECTS">
<path style="stroke: none; stroke-width: 1; stroke-dasharray: none; stroke-linecap: butt; stroke-dashoffset: 0; stroke-linejoin: miter; stroke-miterlimit: 4; is-custom-font: none; font-file-url: none; fill: rgb(106,143,188); fill-rule: nonzero; opacity: 1;" transform=" translate(-395.656, -272.462)" d="M 413.175 246.994 l -8.419 -4.074 l -5.526 7.717 l 0.268 0.13 c -1.716 -0.305 -3.443 -0.402 -5.148 -0.299 l 0.282 -0.098 l -4.596 -8.305 l -8.835 3.073 l 1.549 9.364 l 0.282 -0.098 c -1.4 0.977 -2.694 2.125 -3.851 3.429 l 0.13 -0.268 l -9.122 -2.623 l -4.074 8.42 l 7.717 5.526 l 0.13 -0.268 c -0.305 1.717 -0.402 3.443 -0.299 5.148 l -0.098 -0.282 l -8.305 4.596 l 3.073 8.835 l 9.364 -1.549 l -0.098 -0.282 c 0.977 1.401 2.124 2.695 3.428 3.852 l -0.268 -0.13 l -2.623 9.122 l 8.42 4.074 l 5.526 -7.717 l -0.268 -0.13 c 1.716 0.305 3.443 0.402 5.148 0.299 l -0.282 0.098 l 4.596 8.305 l 8.835 -3.073 l -1.549 -9.364 l -0.282 0.098 c 1.4 -0.977 2.694 -2.124 3.851 -3.428 l -0.13 0.268 l 9.122 2.623 l 4.074 -8.42 l -7.717 -5.526 l -0.13 0.268 c 0.305 -1.716 0.401 -3.443 0.299 -5.148 l 0.098 0.282 l 8.305 -4.596 l -3.073 -8.835 l -9.364 1.549 l 0.098 0.282 c -0.977 -1.401 -2.124 -2.694 -3.428 -3.851 l 0.268 0.13 L 413.175 246.994 z" stroke-linecap="round"/>
</g>
<g transform="matrix(0.7687 -1.6931 1.6392 0.794 761.7923 477.8612)" id="OBJECTS">
<ellipse style="stroke: none; stroke-width: 1; stroke-dasharray: none; stroke-linecap: butt; stroke-dashoffset: 0; stroke-linejoin: miter; stroke-miterlimit: 4; is-custom-font: none; font-file-url: none; fill: rgb(160,179,217); fill-rule: nonzero; opacity: 1;" cx="0" cy="0" rx="19.108" ry="19.108"/>
</g>
<g transform="matrix(1.8105 0 0 1.8699 761.7656 477.8432)" id="OBJECTS">
<path style="stroke: none; stroke-width: 1; stroke-dasharray: none; stroke-linecap: butt; stroke-dashoffset: 0; stroke-linejoin: miter; stroke-miterlimit: 4; is-custom-font: none; font-file-url: none; fill: rgb(90,130,173); fill-rule: nonzero; opacity: 1;" transform=" translate(-395.655, -272.4609)" d="M 401.907 259.541 c 7.135 3.453 10.121 12.036 6.668 19.172 c -3.453 7.135 -12.036 10.121 -19.172 6.668 c -7.135 -3.453 -10.121 -12.037 -6.668 -19.172 C 386.188 259.073 394.772 256.088 401.907 259.541 z" stroke-linecap="round"/>
</g>
<g transform="matrix(1.8105 0 0 1.8699 761.7653 477.8435)" id="OBJECTS">
<path style="stroke: none; stroke-width: 1; stroke-dasharray: none; stroke-linecap: butt; stroke-dashoffset: 0; stroke-linejoin: miter; stroke-miterlimit: 4; is-custom-font: none; font-file-url: none; fill: rgb(255,255,255); fill-rule: nonzero; opacity: 1;" transform=" translate(-395.655, -272.461)" d="M 400.005 263.472 c 4.964 2.402 7.041 8.374 4.639 13.339 c -2.402 4.964 -8.374 7.041 -13.339 4.639 c -4.964 -2.402 -7.041 -8.374 -4.639 -13.338 C 389.069 263.147 395.041 261.07 400.005 263.472 z" stroke-linecap="round"/>
</g>
</svg>