<svg id="visual" viewBox="0 0 960 540" width="960" height="540" xmlns="http://www.w3.org/2000/svg" xmlns:xlink="http://www.w3.org/1999/xlink" version="1.1"><rect width="960" height="540" fill="#ffffff"></rect><g><g transform="translate(674 156)"><path d="M0 -112.6L88 -70.2L109.8 25.1L48.9 101.5L-48.9 101.5L-109.8 25.1L-88 -70.2Z" stroke="#a0bca4" fill="none" stroke-width="2"></path></g><g transform="translate(694 516)"><path d="M0 -72L56.3 -44.9L70.2 16L31.2 64.9L-31.2 64.9L-70.2 16L-56.3 -44.9Z" stroke="#a0bca4" fill="none" stroke-width="2"></path></g><g transform="translate(417 211)"><path d="M0 -71L55.5 -44.3L69.2 15.8L30.8 64L-30.8 64L-69.2 15.8L-55.5 -44.3Z" stroke="#a0bca4" fill="none" stroke-width="2"></path></g><g transform="translate(909 402)"><path d="M0 -71L55.5 -44.3L69.2 15.8L30.8 64L-30.8 64L-69.2 15.8L-55.5 -44.3Z" stroke="#a0bca4" fill="none" stroke-width="2"></path></g><g transform="translate(128 38)"><path d="M0 -107L83.7 -66.7L104.3 23.8L46.4 96.4L-46.4 96.4L-104.3 23.8L-83.7 -66.7Z" stroke="#a0bca4" fill="none" stroke-width="2"></path></g></g></svg>