<?xml version="1.0" encoding="utf-8"?>
<!-- Generator: Adobe Illustrator 27.5.0, SVG Export Plug-In . SVG Version: 6.00 Build 0)  -->
<svg version="1.1" xmlns="http://www.w3.org/2000/svg" xmlns:xlink="http://www.w3.org/1999/xlink" x="0px" y="0px"
	 viewBox="0 0 500 500" style="enable-background:new 0 0 500 500;" xml:space="preserve">
<g id="BACKGROUND">
	<rect id="Rectangle" style="fill:#FFFFFF;" width="500" height="500"/>
</g>
<g id="OBJECTS">
	<g>
		<path id="Background_00000129184405965174585490000011949723595861723053_" style="fill:#F5F8FF;" d="M392.539,411.918
			c15.181,0,39.08-25.703,22.395-60.408c-20.526-42.692-43.398-31.345-16.6-108.125c14.262-40.863-35.927-77.281-76.99-53.411
			c-23.186,13.478-63.499,23.945-76.724-2.33c-28.665-56.95-129.455-60.877-154.01-1.967
			c-26.296,63.087,38.462,86.361,16.505,119.115c-12.547,18.716-28.387,26.255-27.167,53.062
			c1.991,43.713,50.688,53.784,86.159,53.784L392.539,411.918z"/>
		<g>
			<g id="Leaf_00000105421024848163386850000011050697597001807258_">
				<path id="Leaf_Part_00000147903279267117619640000016667646957905864065_" style="fill:#E1ECFA;" d="M96.332,410.996
					c-2.811-0.145-4.814-2.808-4.45-5.599c0.799-6.138,1.499-19.6-6.19-26.878c-8.148-7.713-7.852-12.795-5.583-15.252
					c3.517-3.806,19.636,4.621,21.492,30.576C102.621,408.12,99.42,411.155,96.332,410.996z"/>
				<g id="Leaf_Part_00000016055218057788755450000011199868204777014425_">
					<path id="Leaf_Part_00000044163638452434321670000000313805854533802903_" style="fill:#E1ECFA;" d="M94.03,402.354
						c-0.064,0.545-0.138,1.092-0.223,1.647c-0.01,0.068-0.074,0.115-0.142,0.104c-0.068-0.011-0.107-0.073-0.104-0.142
						c1.729-11.252-1.036-20.505-3.66-26.285c-2.842-6.261-6.132-9.904-6.165-9.94c-0.047-0.051-0.043-0.13,0.008-0.176
						c0.051-0.047,0.13-0.043,0.176,0.008c0.033,0.036,3.349,3.708,6.208,10.005C92.636,383.101,95.273,391.785,94.03,402.354z"/>
				</g>
			</g>
			<g id="Leaf_00000077315471535683923640000015784992671799983003_">
				<path id="Leaf_Part_00000080168677541958523920000009966203334298081177_" style="fill:#E1ECFA;" d="M98.119,411.831
					c3.944,0.336,7.244-2.99,7.272-6.948c0.061-8.704,1.664-27.594,13.77-36.263c12.828-9.186,13.39-16.323,10.698-20.18
					c-4.171-5.977-28.243,2.678-35.797,38.486C89.908,406.619,93.787,411.461,98.119,411.831z"/>
				<g id="Leaf_Part_00000080924528300507604800000009200043094528150965_">
					<path id="Leaf_Part_00000143590145306046330200000001051793468948775094_" style="fill:#E1ECFA;" d="M102.981,400.23
						c-0.015,0.771-0.017,1.548-0.004,2.337c0.002,0.097,0.081,0.174,0.178,0.173c0.097-0.002,0.164-0.082,0.172-0.178
						c-0.254-16.008,5.37-28.37,10.132-35.92c5.159-8.179,10.44-12.624,10.493-12.668c0.075-0.062,0.084-0.172,0.023-0.247
						c-0.062-0.074-0.172-0.084-0.246-0.023c-0.053,0.044-5.377,4.525-10.565,12.75C108.61,373.673,103.273,385.268,102.981,400.23z
						"/>
				</g>
			</g>
			<g id="Leaf_00000142149935981250212430000009110915979426101122_">
				<path id="Leaf_Part_00000029005178069045924330000010364891400125198761_" style="fill:#E1ECFA;" d="M247.356,410.675
					c1.222-2.105,0.238-4.813-1.956-5.867c-4.825-2.318-14.909-8.164-16.553-17.17c-1.743-9.543-5.565-11.728-8.416-11.243
					c-4.418,0.752-5.92,16.409,12.011,30.003C242.304,413.874,246.014,412.987,247.356,410.675z"/>
				<g id="Leaf_Part_00000111187948621170642690000012053829108673404337_">
					<path id="Leaf_Part_00000142898562102953916660000016565937890460024194_" style="fill:#E1ECFA;" d="M242.181,404.928
						c0.425,0.211,0.857,0.415,1.299,0.615c0.054,0.025,0.118,0,0.143-0.054c0.024-0.054-0.002-0.112-0.054-0.142
						c-8.969-4.058-14.368-10.429-17.317-15.057c-3.195-5.015-4.282-9.118-4.292-9.158c-0.015-0.058-0.074-0.092-0.131-0.077
						c-0.058,0.015-0.092,0.074-0.077,0.131c0.011,0.041,1.106,4.177,4.319,9.22C228.889,394.831,233.937,400.841,242.181,404.928z"
						/>
				</g>
			</g>
			<g id="Leaf_00000078725197750547546980000012501452200286906257_">
				<path id="Leaf_Part_00000054982732407613151810000010754164229790595240_" style="fill:#E1ECFA;" d="M249.969,411.703
					c2.58-1.168,3.478-4.399,2.113-6.88c-3.004-5.456-8.604-17.811-4.075-27.454c4.8-10.219,2.656-14.872-0.372-16.339
					c-4.693-2.274-16.699,11.542-8.902,36.54C243.02,411.319,247.134,412.986,249.969,411.703z"/>
				<g id="Leaf_Part_00000091730536515531503570000009678713126619431055_">
					<path id="Leaf_Part_00000116953942624826574440000001129984004194239679_" style="fill:#E1ECFA;" d="M248.95,402.761
						c0.26,0.487,0.531,0.973,0.814,1.461c0.035,0.06,0.112,0.08,0.171,0.046c0.06-0.035,0.074-0.108,0.046-0.171
						c-5.753-9.907-6.562-19.591-6.227-25.969c0.363-6.91,2.107-11.531,2.124-11.577c0.025-0.065-0.008-0.137-0.072-0.162
						c-0.065-0.025-0.137,0.008-0.162,0.072c-0.018,0.046-1.776,4.704-2.141,11.653C243.184,384.212,243.904,393.316,248.95,402.761
						z"/>
				</g>
			</g>
			<g id="Leaf_00000083079682987331520370000000127049645392041615_">
				<path id="Leaf_Part_00000089542061481313862040000009353706328406658720_" style="fill:#E1ECFA;" d="M387.098,409.82
					c-1.636-2.819-0.318-6.446,2.62-7.857c6.461-3.104,19.966-10.934,22.168-22.995c2.334-12.781,7.452-15.707,11.27-15.057
					c5.916,1.007,7.928,21.975-16.085,40.18C393.864,414.105,388.896,412.917,387.098,409.82z"/>
				<g id="Leaf_Part_00000013898481077773842720000005631225186930057866_">
					<path id="Leaf_Part_00000119111184839735627310000014055438105477550477_" style="fill:#E1ECFA;" d="M394.029,402.124
						c-0.569,0.282-1.147,0.556-1.739,0.824c-0.073,0.033-0.158,0-0.191-0.072c-0.033-0.073,0.003-0.151,0.072-0.191
						c12.011-5.435,19.242-13.966,23.191-20.165c4.279-6.715,5.734-12.21,5.748-12.265c0.02-0.077,0.099-0.124,0.176-0.104
						c0.077,0.02,0.124,0.099,0.104,0.176c-0.014,0.055-1.481,5.594-5.784,12.348C411.83,388.603,405.07,396.65,394.029,402.124z"/>
				</g>
			</g>
			<g id="Leaf_00000078022027646517748460000007654582165904981892_">
				<path id="Leaf_Part_00000084502538080388578310000002709663870924324789_" style="fill:#E1ECFA;" d="M383.6,411.197
					c-3.455-1.564-4.658-5.891-2.829-9.213c4.022-7.307,11.523-23.853,5.457-36.767c-6.428-13.685-3.557-19.916,0.499-21.881
					c6.285-3.046,22.363,15.458,11.922,48.935C392.905,410.683,387.396,412.916,383.6,411.197z"/>
				<g id="Leaf_Part_00000018219695636251056090000018075831748741507259_">
					<path id="Leaf_Part_00000008146549878112764590000002831136939226724017_" style="fill:#E1ECFA;" d="M384.964,399.222
						c-0.348,0.652-0.711,1.303-1.09,1.956c-0.047,0.08-0.15,0.107-0.23,0.061c-0.08-0.047-0.099-0.145-0.061-0.229
						c7.704-13.267,8.787-26.236,8.339-34.778c-0.486-9.254-2.822-15.442-2.845-15.504c-0.033-0.087,0.01-0.184,0.096-0.217
						c0.087-0.033,0.184,0.01,0.217,0.096c0.024,0.062,2.378,6.3,2.867,15.606C392.686,374.381,391.722,386.574,384.964,399.222z"/>
				</g>
			</g>
			<g id="Leaf_00000121966359174760234910000001192519869157173918_">
				<path id="Leaf_Part_00000039833274226418442050000004998095702623198849_" style="fill:#E1ECFA;" d="M386.392,410.185
					c1.527-1.62,1.216-4.236-0.518-5.633c-3.813-3.07-11.573-10.381-11.158-18.744c0.439-8.862-2.508-11.605-5.148-11.768
					c-4.091-0.252-8.695,13.377,4.436,29.224C381.225,411.98,384.714,411.964,386.392,410.185z"/>
				<g id="Leaf_Part_00000028315294121346835510000002417684496295629992_">
					<path id="Leaf_Part_00000109724107111952447920000014254977539755565209_" style="fill:#E1ECFA;" d="M382.982,403.987
						c0.334,0.276,0.676,0.549,1.028,0.819c0.043,0.033,0.105,0.025,0.138-0.018c0.033-0.043,0.021-0.101-0.018-0.138
						c-7.14-5.485-10.619-12.285-12.28-17.022c-1.799-5.132-1.91-9.013-1.911-9.051c-0.001-0.055-0.047-0.098-0.101-0.096
						c-0.054,0.001-0.098,0.046-0.096,0.101c0.001,0.039,0.113,3.95,1.922,9.112C373.252,392.223,376.493,398.627,382.982,403.987z"
						/>
				</g>
			</g>
		</g>
		<g>
			<path id="Cloud_00000133505288692261554500000006755031204700232090_" style="fill:#E1ECFA;" d="M372.744,159.759
				c-1.449,0-2.831,0.277-4.111,0.76c0.011-0.252,0.019-0.505,0.019-0.76c0-9.947-8.064-18.011-18.011-18.011
				c-9.457,0-17.206,7.291-17.947,16.557c-2.151-2.069-5.069-3.347-8.289-3.347c-4.737,0-8.819,2.758-10.759,6.75
				c-2.389-5.148-7.59-8.727-13.639-8.727c-8.308,0-15.044,6.735-15.044,15.044c0,8.308,6.735,15.044,15.044,15.044h72.737
				c6.437,0,11.655-5.218,11.655-11.655C384.399,164.977,379.181,159.759,372.744,159.759z"/>
			<path id="Cloud_00000098921707051692557230000008909983657037955775_" style="fill:#E1ECFA;" d="M208.655,105.688
				c1.449,0,2.831,0.277,4.111,0.76c-0.01-0.252-0.019-0.505-0.019-0.76c0-9.947,8.064-18.011,18.011-18.011
				c9.457,0,17.206,7.291,17.947,16.557c2.151-2.069,5.069-3.347,8.289-3.347c4.737,0,8.819,2.758,10.759,6.75
				c2.389-5.148,7.59-8.727,13.639-8.727c8.309,0,15.044,6.735,15.044,15.044c0,8.308-6.735,15.044-15.044,15.044h-72.737
				c-6.437,0-11.655-5.218-11.655-11.655C197,110.907,202.218,105.688,208.655,105.688z"/>
		</g>
	</g>
	<g>
		
			<ellipse id="Globe_Part_00000037663501115394694890000008054182163841267867_" transform="matrix(0.9722 -0.2342 0.2342 0.9722 -47.0601 65.8567)" style="fill:#BAD4EF;" cx="253.801" cy="231.104" rx="88.175" ry="88.175"/>
		
			<ellipse id="Globe_Part_00000060016173177477200300000002310307543262953103_" transform="matrix(0.9575 -0.2883 0.2883 0.9575 -55.8488 82.979)" style="fill:none;stroke:#FFFFFF;stroke-width:1.5;stroke-linecap:round;stroke-miterlimit:10;" cx="253.801" cy="231.104" rx="80.881" ry="80.881"/>
		
			<ellipse id="Globe_Part_00000068655904877350868690000005770150389789826738_" style="fill:none;stroke:#FFFFFF;stroke-width:1.5;stroke-linecap:round;stroke-miterlimit:10;" cx="256.564" cy="231.793" rx="31.927" ry="81.523"/>
		
			<line id="Globe_Part_00000012466227521358805380000010315286556475539074_" style="fill:none;stroke:#FFFFFF;stroke-width:1.5;stroke-linecap:round;stroke-miterlimit:10;" x1="334.682" y1="231.104" x2="172.92" y2="231.104"/>
		
			<path id="Globe_Part_00000170997755457827709600000000033037435991059387_" style="fill:none;stroke:#FFFFFF;stroke-width:1.5;stroke-linecap:round;stroke-miterlimit:10;" d="
			M254.615,270.891c23.791,0,45.18,5.22,59.98,13.528c-14.824,16.889-36.556,27.566-60.794,27.566
			c-23.937,0-45.437-10.407-60.245-26.932C208.385,276.381,230.231,270.891,254.615,270.891z"/>
		<path id="Globe_Part" style="fill:none;stroke:#FFFFFF;stroke-width:1.5;stroke-linecap:round;stroke-miterlimit:10;" d="
			M315.829,179.214c-14.831,8.723-36.745,14.252-61.214,14.252c-25.062,0-47.458-5.793-62.294-14.886
			c14.835-17.348,36.865-28.357,61.48-28.357C278.717,150.224,300.993,161.498,315.829,179.214z"/>
	</g>
	<path style="fill:#E69724;" d="M418.826,243.166l-32.276,4.385l-32.276,4.385c-3.509,0.477-5.186,4.574-3.019,7.374l12.83,16.579
		l-49.798,40.891c-3.045,2.501-7.431,2.509-10.486,0.02l-19.566-15.944c-2.774-2.261-6.687-2.483-9.7-0.552l-70.712,45.333
		c-2.305,1.478-5.192,1.72-7.711,0.648l-17.434-7.418c-2.525-1.074-5.419-0.828-7.726,0.658l-71.412,45.992
		c-5.598,3.605-7.214,11.067-3.608,16.664c2.103,3.266,5.517,5.175,9.109,5.485c2.566,0.221,5.223-0.374,7.557-1.877l60.67-39.074
		c2.307-1.486,5.201-1.732,7.726-0.658l17.404,7.406c2.52,1.072,5.406,0.829,7.711-0.648l66.735-42.783
		c3.013-1.931,6.926-1.709,9.7,0.552l21.316,17.369c3.055,2.489,7.44,2.481,10.486-0.02l64.505-52.966l12.275,15.862
		c2.168,2.801,6.554,2.205,7.896-1.073l12.341-30.144l12.341-30.144C425.045,246.19,422.335,242.689,418.826,243.166z"/>
	<g>
		<g>
			
				<circle id="Ellipse_00000167392055794236550160000003225946947352940708_" style="fill:#F0C66C;" cx="103.718" cy="260.865" r="27.109"/>
			
				<circle id="Ellipse_00000073718521117580610970000001459235525160598933_" style="fill:none;stroke:#F0C66C;stroke-width:0.5;stroke-miterlimit:10;" cx="103.718" cy="260.865" r="30.022"/>
			<path id="Lamp_Part_00000000183016132169685790000002801932016906659493_" style="fill:#FFFFFF;" d="M99.794,244.407
				c9.241-3.386,16.234,5.611,15.232,12.769c-0.436,7.057-8.694,11.419-7.944,14.083c-1.706,0-5.138,0-6.843,0
				c0,0,0.486-1.312-1.297-2.887C92.212,263.068,87.876,249.762,99.794,244.407z"/>
			<path id="Lamp_Part_00000179636387766541312540000005777501527062241191_" style="fill:#E69724;" d="M107.082,271.259
				c-0.038,3.236,0.786,7.137-3.919,6.777c-3.695-0.121-2.859-4.292-2.929-6.777H107.082z"/>
			<path style="fill:none;stroke:#F0C66C;stroke-linecap:round;stroke-miterlimit:10;" d="M105.03,271.259
				c0,0-0.124-10.769,0.825-13.756c0.949-2.986,2.846-5.292,4.248-2.725c2.698,8.161-11.779,10.208-12.908,2.986
				c-1.493-6.965,6.342-7.558,5.034,13.494"/>
		</g>
		<g>
			
				<circle id="Ellipse_00000178179105049997366580000009247430809164627844_" style="fill:#F0C66C;" cx="143.514" cy="162.408" r="27.109"/>
			
				<circle id="Ellipse_00000106845369027460116320000007805812156319076231_" style="fill:none;stroke:#F0C66C;stroke-width:0.5;stroke-miterlimit:10;" cx="143.514" cy="162.408" r="30.022"/>
			
				<ellipse transform="matrix(0.9224 -0.3863 0.3863 0.9224 -51.3674 68.0027)" style="fill:none;stroke:#FFFFFF;stroke-miterlimit:10;" cx="143.514" cy="161.808" rx="15.444" ry="15.444"/>
			<g>
				<path style="fill:#FFFFFF;" d="M139.905,169.097c-0.759,0.703-1.979,0.495-2.462-0.419l-3.054-5.776
					c-0.4-0.754-0.112-1.689,0.642-2.087c0.758-0.4,1.689-0.112,2.087,0.642l2.134,4.035l10.973-10.159
					c0.624-0.583,1.603-0.544,2.182,0.083c0.581,0.626,0.543,1.603-0.083,2.182L139.905,169.097z"/>
			</g>
			
				<ellipse transform="matrix(0.2305 -0.9731 0.9731 0.2305 -54.1199 283.0786)" style="fill:#FFFFFF;" cx="151.919" cy="175.757" rx="7.329" ry="7.329"/>
			<path style="fill:#F0C66C;" d="M158.16,175.757c0,3.447-2.794,6.241-6.241,6.241c-3.447,0-6.241-2.794-6.241-6.241
				c0-3.447,2.794-6.241,6.241-6.241C155.366,169.516,158.16,172.31,158.16,175.757z"/>
			<g id="Money_Part_00000039855458569584991310000001678295675392888983_">
				<path id="Money_Part_00000073681748275601488120000003647557447643828370_" style="fill:#FFFFFF;" d="M153.823,176.747
					c-0.01,0.922-0.752,1.325-1.661,1.41v0.779h-0.521v-0.764c-0.618-0.013-1.16-0.122-1.626-0.327v-1.003
					c0.198,0.113,1.273,0.458,1.626,0.437v-1.178c-2.017-0.365-2.214-2.851,0-2.941v-0.582h0.521v0.566
					c0.58,0.025,1.105,0.142,1.573,0.35l-0.357,0.889c-0.395-0.162-0.801-0.261-1.216-0.296v1.121
					C153.073,175.594,153.777,175.792,153.823,176.747z M151.152,174.497c0.013,0.29,0.215,0.361,0.49,0.498v-0.893
					C151.315,174.15,151.152,174.282,151.152,174.497z M152.679,176.804c-0.017-0.283-0.251-0.359-0.517-0.498v0.946
					C152.507,177.194,152.679,177.045,152.679,176.804z"/>
			</g>
		</g>
		<g>
			
				<ellipse id="Ellipse_00000107579840078939687030000002997869601945967762_" transform="matrix(0.2324 -0.9726 0.9726 0.2324 95.4635 522.2194)" style="fill:#F0C66C;" cx="378.599" cy="200.626" rx="27.109" ry="27.109"/>
			
				<circle id="Ellipse_00000054257825628578543740000011532092340169688966_" style="fill:none;stroke:#F0C66C;stroke-width:0.5;stroke-miterlimit:10;" cx="378.599" cy="200.626" r="30.022"/>
			<g>
				<path style="fill:#E69724;" d="M367.775,203.973c0,0,0.356,5.081,0.387,7.242c0.015,1.022,0.16,1.793,0.308,2.322
					c0.143,0.508,0.648,0.824,1.168,0.735l2.875-0.488c0.591-0.101,0.974-0.68,0.832-1.263c-0.527-2.169-1.622-7.005-1.364-8.737
					L367.775,203.973z"/>
				<path style="fill:#E69724;" d="M365.104,197.67l0.597,5.652c0.045,0.424,0.41,0.74,0.836,0.724l7.557-0.285l-0.457-7.968
					l-7.542,0.674C365.486,196.52,365.04,197.063,365.104,197.67z"/>
				<path style="fill:#FFFFFF;" d="M373.637,195.792l13.246-8.54c1.012-0.652,2.365-0.139,2.686,1.021
					c1.073,3.883,2.883,12.12,1.723,20.35c-0.111,0.785-0.927,1.262-1.669,0.983l-15.529-5.845L373.637,195.792z"/>
				<path style="fill:#FFFFFF;" d="M365.145,198.056L365.145,198.056c-0.911,0.071-1.584,0.88-1.487,1.789l0.18,1.685
					c0.097,0.908,0.921,1.558,1.826,1.441l0,0L365.145,198.056z"/>
				<path style="fill:#E69724;" d="M390.982,194.798c0,0,2.581,0.846,2.566,3.021c-0.015,2.175-1.882,3.615-1.882,3.615
					S391.171,196.075,390.982,194.798z"/>
				<path style="fill:#E69724;" d="M391.292,208.623c1.16-8.229-0.65-16.467-1.723-20.35c-0.321-1.16-1.675-1.673-2.686-1.021
					l-0.384,0.247c0.487,1.079,1.417,3.525,1.933,7.402c0.667,5.003,1.208,10.558,0.501,14.444l0.689,0.259
					C390.365,209.885,391.182,209.408,391.292,208.623z"/>
			</g>
		</g>
	</g>
	<g>
		<g>
			<path style="fill:#A0C8EC;" d="M192.573,327.581l-4.381-1.23c0.264-1.668,0.363-4.359-0.975-6.895
				c-1.323-2.505-3.689-4.251-7.032-5.19c-5.731-1.609-9.358,0.705-11.391,2.93c-0.965,1.057-1.653,2.186-2.121,3.115l-4.54-1.274
				c-1.354-0.38-2.76,0.41-3.14,1.764l-5.231,18.635c-0.38,1.354,0.41,2.76,1.764,3.14l30.44,8.544
				c1.354,0.38,2.76-0.409,3.14-1.764l5.231-18.636C194.717,329.367,193.927,327.961,192.573,327.581z M179.258,317.567
				c2.392,0.671,4.045,1.837,4.914,3.466c0.813,1.523,0.827,3.211,0.689,4.383l-14.838-4.165
				C171.27,319.049,173.991,316.089,179.258,317.567z"/>
			<path style="fill:#E1B39D;" d="M186.956,292.668l-4.649,17.75c0,0,1.787,1.544,2.536,3.418c0.749,1.874,0.507,3.408,0.072,2.935
				c-0.266-0.289-0.667-0.584-1.234-0.966c-0.766-0.516-1.121-1.116-1.685-1.086c-0.974,0.053-2.018,0.478-1.235,2.5
				c0.759,1.961,3.456,2.531,2.773,3.036c-1.739,1.284-2.968-0.48-2.968-0.48s-0.511,0.79-1.203,0.776
				c-0.692-0.013-0.958-1.231-0.958-1.231s-0.519,0.682-1.306,0.571c-0.787-0.111-0.958-1.228-0.958-1.228s-1.238,1.105-2.043-0.234
				c-0.805-1.339-2.391-4.716,2.459-9.035c0,0,4.543-22.611,6.601-23.818C185.217,284.368,186.956,292.668,186.956,292.668z"/>
			<path id="_x3C_Path_x3E__00000110433001342310786470000011690611468786041991_" style="fill:#FFFFFF;" d="M176.802,307.225
				l5.78,2.311c0.261,0.104,0.555-0.042,0.63-0.313l0.162-0.589c0.063-0.23-0.055-0.47-0.275-0.561l-5.757-2.369
				c-0.26-0.107-0.556,0.036-0.633,0.307l-0.185,0.647C176.457,306.891,176.577,307.136,176.802,307.225z"/>
			<path style="fill:#264154;" d="M176.545,306.42l6.808,2.451c0.31,0.112,0.652-0.049,0.764-0.359l3.384-17.201l8.355-9.947
				c0.112-0.31-0.878-3.802-1.188-3.914l-2.223-8.144c-0.31-0.112-12.826,18.411-12.826,18.411l-3.433,17.939
				C176.074,305.967,176.235,306.309,176.545,306.42z"/>
			<path id="_x3C_Path_x3E__00000077287947687799104030000001137115384468898698_" style="fill:#E1B39D;" d="M247.669,299.937
				c0,0,4.306,2.331,4.485,2.297c0.179-0.035,3.333-0.984,3.988-0.174c0.656,0.81,3.365,3.803,5.079,5.526
				c1.714,1.723,2.778,3.92,1.725,4.733c-1.053,0.813-1.342,0.067-1.342,0.067s0.677,1.476-0.419,1.873
				c-1.096,0.397-1.608-0.182-1.608-0.182s0.29,0.911-0.358,1.276c-0.648,0.365-1.484,0.039-1.734-0.326c0,0-0.951,1.4-2.166,0.587
				c-1.215-0.813-6.958-5.36-7.082-7.35l-2.427-1.586L247.669,299.937z"/>
			<path id="_x3C_Path_x3E__00000011710823379394873610000012496446250330510502_" style="fill:#FFFFFF;" d="M248.971,300.513
				l-2.803,6.463c-0.121,0.278-0.453,0.394-0.72,0.251l-3.928-2.099c-0.238-0.127-0.339-0.416-0.231-0.664l2.938-6.762
				c0.127-0.292,0.484-0.402,0.753-0.232l3.792,2.398C248.988,300.004,249.073,300.278,248.971,300.513z"/>
			<polygon id="_x3C_Path_x3E__00000124879764093663018190000014318288559375879322_" style="fill:#F3D6C1;" points="
				218.826,396.898 218.626,403.382 210.264,403.341 210.296,396.856 			"/>
			<path id="_x3C_Path_x3E__00000072958908060731873860000006939509619473559483_" style="fill:#2F526E;" d="M210.264,403.341
				l8.179,0.041c0.124,0.001,0.242,0.014,0.363,0.043c1.167,0.28,7.814,1.956,13.668,5.193c1.455,0.805,0.859,3.029-0.804,3.021
				l-19.831-0.098c-0.891-0.004-1.61-0.731-1.606-1.622L210.264,403.341z"/>
			<path style="fill:#E1B39D;" d="M214.261,237.705c0,0,0.403,2.417,3.389,7.393c3.049,5.08,2.782,12.966-1.198,14.804
				c-3.098,1.431-5.433,0.903-5.433,0.903l-1.451,11.367l-10.103-2.184l0.611-11.125l-3.232-15.838L214.261,237.705z"/>
			<polygon id="_x3C_Path_x3E__00000018214155258598333290000011751504264489672105_" style="fill:#F3D6C1;" points="
				202.484,396.405 202.305,403.382 193.943,403.341 193.975,396.856 			"/>
			<path id="_x3C_Path_x3E__00000052797797001744723940000012411669980936920999_" style="fill:#315780;" d="M193.943,403.341
				l8.178,0.041c0.124,0.001,0.242,0.014,0.363,0.043c1.167,0.28,7.814,1.956,13.668,5.193c1.455,0.805,0.859,3.029-0.804,3.021
				l-19.831-0.098c-0.891-0.004-1.611-0.731-1.606-1.622L193.943,403.341z"/>
			<path style="fill:#F0C66C;" d="M219.391,318.171l1.036,78.734c0.012,0.872-0.683,1.59-1.556,1.607l-8.836,0.171
				c-0.848,0.016-1.559-0.637-1.614-1.484l-1.822-28.14l-2.878,28.512c-0.081,0.8-0.747,1.413-1.55,1.427l-7.729,0.138
				c-0.865,0.015-1.582-0.665-1.614-1.529l-2.886-79.436C189.938,317.744,219.391,318.171,219.391,318.171z"/>
			
				<line style="fill:none;stroke:#E69724;stroke-width:0.5;stroke-linecap:round;stroke-miterlimit:10;" x1="218.826" y1="396.898" x2="209.972" y2="397.013"/>
			
				<line style="fill:none;stroke:#E69724;stroke-width:0.5;stroke-linecap:round;stroke-miterlimit:10;" x1="202.391" y1="397.149" x2="193.826" y2="397.282"/>
			
				<line style="fill:none;stroke:#E69724;stroke-width:0.5;stroke-linecap:round;stroke-miterlimit:10;" x1="211.176" y1="394.95" x2="209.059" y2="343.649"/>
			<path style="fill:none;stroke:#E69724;stroke-width:0.5;stroke-linecap:round;stroke-miterlimit:10;" d="M213.987,319.181
				c0,0,0.118,10.37-3.246,11.866c-3.364,1.495,0.874-7.785-0.56-11.929L213.987,319.181z"/>
			<polyline style="fill:none;stroke:#E69724;stroke-width:0.5;stroke-linecap:round;stroke-miterlimit:10;" points="
				210.741,331.047 210.085,333.052 206.599,369.06 			"/>
			
				<line style="fill:none;stroke:#E69724;stroke-width:0.5;stroke-linecap:round;stroke-miterlimit:10;" x1="193.594" y1="317.521" x2="195.621" y2="394.95"/>
			<path style="fill:#315782;" d="M190.361,275.467c0.47-4.406,2.114-9.412,7.622-10.314c3.916-0.642,9.577-0.487,13.371,0.629
				c3.607,1.061,6.737,3.319,8.852,6.428c3.46,5.088,8.75,12.875,8.775,12.896l0,0l19.15,13.286c0.37,0.285,0.494,0.788,0.299,1.212
				l-3.151,6.869c-0.265,0.577-0.987,0.769-1.499,0.394c-4.279-3.135-21.384-13.904-21.407-13.931l-3.121-2.974l0.653,29.319
				h-30.518C189.387,319.28,189.315,285.271,190.361,275.467z"/>
			<path style="fill:#2F5482;" d="M199.96,257.804l2.725-3.457c0.318-0.403,0.205-0.989-0.238-1.248
				c-1.079-0.632-2.769-1.925-2.704-3.8c0.095-2.746,3.072-3.832,5.314-1.566c0,0,0.498,1.503,1.136-4.313
				c0.638-5.816,5.589-1.584,7.888-4.011c2.299-2.427,3.816-3.81,3.326-6.072c-0.49-2.261-1.964-5.492-4.881-3.53
				c-2.918,1.962-3.128-1.862-6.318-0.219c-3.973,2.047-8.349-2.158-8.797,2.753c-0.448,4.911-6.175,1.575-4.602,5.543
				c1.573,3.968-4.675,3.97-3.193,6.772c1.482,2.803-0.463,6.313,2.192,7.674c2.655,1.361,4.721,0.005,4.996,3.687
				C196.963,258.166,199.96,257.804,199.96,257.804z"/>
			<path style="fill:none;stroke:#264154;stroke-width:0.5;stroke-linecap:round;stroke-miterlimit:10;" d="M212.22,270.58
				c0,0-6.259,2.896,0.501,11.492c6.433,8.18,6.531,7.889,6.531,7.889"/>
			<path style="fill:none;stroke:#264154;stroke-width:0.5;stroke-linecap:round;stroke-miterlimit:10;" d="M199.44,301.062
				c0,0,0.595,11.333,9.967,12.668"/>
			<path style="fill:none;stroke:#264154;stroke-width:0.5;stroke-linecap:round;stroke-miterlimit:10;" d="M194.432,294.604
				c0,0-1.038,16.454,4.505,20.193"/>
		</g>
		<g>
			<polygon id="_x3C_Path_x3E__00000138546843219376734800000015497254259783863482_" style="fill:#E1B39D;" points="
				291.263,398.484 291.482,405.578 299.029,404.328 299,398.446 			"/>
			<path id="_x3C_Path_x3E__00000101082071790747577480000009299769291699507363_" style="fill:#2F526E;" d="M299.029,404.328
				c-7.802-0.119-10.357-0.129-20.145,4.786c-1.32,0.73-0.779,2.748,0.73,2.74l17.988-0.089
				C300.211,411.915,299.029,404.328,299.029,404.328z"/>
			<polygon id="_x3C_Path_x3E__00000151525291330712107070000010571931836642503325_" style="fill:#E1B39D;" points="
				326.371,398.446 326.553,405.565 334.125,406.142 334.089,398.855 			"/>
			<path id="_x3C_Path_x3E__00000176003063905531259260000005377651482006235276_" style="fill:#315780;" d="M329.821,404.297
				c-0.986,0.005-4.121,0.211-5.745,1.823c-2.097,2.082-1.817,5.686-0.965,5.689l13.343,0.045c0.645,0.05,0.432-3.108-1.06-5.117
				C334.051,404.926,332.933,404.283,329.821,404.297z"/>
			<path style="fill:#EBB259;" d="M330.619,334.576l4.318-1.086c-0.213-1.639-0.239-4.273,1.139-6.719
				c1.361-2.415,3.722-4.06,7.018-4.888c5.649-1.42,9.135,0.94,11.064,3.171c0.916,1.059,1.558,2.182,1.991,3.104l4.475-1.125
				c1.335-0.336,2.689,0.475,3.025,1.809l4.618,18.369c0.336,1.335-0.474,2.689-1.809,3.025l-30.005,7.543
				c-1.335,0.335-2.689-0.475-3.025-1.809L328.81,337.6C328.474,336.265,329.284,334.911,330.619,334.576z M343.912,325.137
				c-2.358,0.593-4.006,1.689-4.899,3.259c-0.836,1.467-0.895,3.119-0.792,4.268l14.626-3.677
				C351.686,326.8,349.104,323.832,343.912,325.137z"/>
			<path style="fill:#315782;" d="M327.556,310.438c0.804,5.478,4.284,30.452,3.897,50.001c-0.001,0.059,0.002,0.117,0.008,0.176
				l4.546,38.962c0.095,0.817-0.543,1.535-1.366,1.535h-8.862c-0.64,0-1.195-0.441-1.34-1.064
				c-1.537-6.619-9.737-42.038-10.35-46.736c-0.677-5.186-1.353-12.176-1.353-12.176l-5.625,22.952
				c-0.008,0.031-0.014,0.062-0.02,0.094l-6.25,36.291c-0.115,0.668-0.699,1.152-1.377,1.142l-9.295-0.147
				c-0.789-0.013-1.406-0.686-1.35-1.473l2.944-41.218c0.003-0.035,0.006-0.071,0.012-0.106l7.471-49.88
				c0.106-0.707,0.735-1.215,1.449-1.169l25.59,1.651C326.933,309.315,327.462,309.796,327.556,310.438z"/>
			
				<line style="fill:none;stroke:#264154;stroke-width:0.5;stroke-linecap:round;stroke-miterlimit:10;" x1="312.75" y1="341.136" x2="309.25" y2="313.315"/>
			<polyline style="fill:none;stroke:#264154;stroke-width:0.5;stroke-linecap:round;stroke-miterlimit:10;" points="
				310.487,338.936 302.94,363.683 297.822,398.446 			"/>
			<polyline style="fill:none;stroke:#264154;stroke-width:0.5;stroke-linecap:round;stroke-miterlimit:10;" points="
				325.879,321.375 328.382,360.262 333.517,398.446 			"/>
			<path style="fill:none;stroke:#264154;stroke-width:0.5;stroke-linecap:round;stroke-miterlimit:10;" d="M305.439,315.353
				c0,0,1.339,9.411,5.048,9.28"/>
			<path style="fill:none;stroke:#264154;stroke-width:0.5;stroke-linecap:round;stroke-miterlimit:10;" d="M318.937,313.315
				c0,0,1.414,6.093,5.785,11.319"/>
			<path style="fill:#F3D6C1;" d="M336.175,301.196l5.598,17.02c0,0-2.443,1.308-3.226,3.121c-0.783,1.813-0.587,3.32-0.148,2.869
				c0.268-0.276,0.668-0.554,1.233-0.912c0.763-0.484,1.127-1.062,1.677-1.017c0.952,0.078,1.961,0.522,1.141,2.478
				c-0.795,1.898-3.449,2.383-2.794,2.895c1.666,1.303,2.917-0.39,2.917-0.39s0.479,0.786,1.156,0.791
				c0.677,0.005,0.97-1.179,0.97-1.179s0.489,0.681,1.263,0.594c0.773-0.087,0.97-1.176,0.97-1.176s1.181,1.114,2.005-0.174
				c0.824-1.288,2.465-4.549-2.164-8.904c0,0-3.839-22.239-5.82-23.476C338.971,292.502,336.175,301.196,336.175,301.196z"/>
			<path id="_x3C_Path_x3E__00000011735265274709446270000017055941926732825760_" style="fill:#F3D6C1;" d="M263.284,311.02
				c0,0-0.027-0.737-1.627-2.447c-1.6-1.71-3.317-4.127-4.593-3.944c0,0-0.752,3.296-1.949,3.582
				c-1.197,0.286-1.16-1.576-1.314-3.047c-0.153-1.471,1.712-3.355,2.985-3.581c1.419-0.252,2.954,1.27,4.826,1.452l6.053-1.974
				l1.759,7.182l-3.542,1.11C265.881,309.354,264.855,310.038,263.284,311.02"/>
			<path id="_x3C_Path_x3E__00000029017098424504795150000010094801762276890807_" style="fill:#F9ECDC;" d="M265.913,301.836
				l2.078,6.524c0.094,0.295,0.424,0.442,0.706,0.316l0.614-0.275c0.239-0.107,0.361-0.375,0.284-0.626l-2.013-6.545
				c-0.091-0.296-0.419-0.447-0.703-0.323l-0.679,0.296C265.957,301.309,265.833,301.582,265.913,301.836z"/>
			<path id="_x3C_Path_x3E__00000052098370262463659970000018080290459592241074_" style="fill:#FFFFFF;" d="M254.867,305.401
				l-1.066-0.237c0.084,0.803,0.111,1.721,0.313,2.343c0.901,0.444,1.048-1.046,1.069-1.721
				C255.188,305.605,255.055,305.443,254.867,305.401z"/>
			<path id="_x3C_Path_x3E__00000145055910656278690590000004119562831477608617_" style="fill:#F3D6C1;" d="M251.998,310.901
				c0,0,1.669-1.035,2.382-0.662c0.714,0.373,0.756,0.853,0.57,1.125c0,0,0.97-0.347,1.503,0.426
				c0.533,0.773-1.038,1.874-1.038,1.874s1.157,0.159,0.065,1.407c-1.092,1.248-2.463,0.86-2.339-0.057c0,0-1.143,0.163-1.558-0.451
				c-0.415-0.613-0.069-1.104-0.069-1.104s-1.124,0.165-1.357-0.519c-0.233-0.684,0.117-1.028,0.117-1.028s-1.557-0.122-1.304-1.153
				c0.253-1.031,2.499-1.69,2.86-1.283C252.191,309.882,252.366,310.048,251.998,310.901z"/>
			<path id="_x3C_Path_x3E__00000153672950278858927600000016858006356769771680_" style="fill:#FFFFFF;" d="M250.554,310.861
				l-0.236-0.371c-0.093-0.146-0.044-0.334,0.11-0.42l0.525-0.293c0.257-0.143,0.591-0.061,0.746,0.183l0,0
				c0.155,0.244,0.073,0.559-0.184,0.702l-0.542,0.303C250.829,311.045,250.641,310.999,250.554,310.861z"/>
			<path id="_x3C_Path_x3E__00000090984844985749219570000018186050296105327000_" style="fill:#FFFFFF;" d="M253.268,311.599
				l-0.236-0.371c-0.093-0.146-0.044-0.334,0.11-0.42l0.525-0.293c0.257-0.143,0.591-0.061,0.746,0.183l0,0
				c0.155,0.244,0.073,0.559-0.184,0.702l-0.542,0.302C253.543,311.782,253.355,311.736,253.268,311.599z"/>
			<path id="_x3C_Path_x3E__00000173839456305922167330000010279658429115068825_" style="fill:#FFFFFF;" d="M254.884,312.834
				l-0.236-0.371c-0.093-0.146-0.044-0.334,0.11-0.42l0.525-0.293c0.257-0.143,0.591-0.061,0.746,0.183l0,0
				c0.155,0.244,0.073,0.559-0.184,0.702l-0.542,0.302C255.159,313.018,254.971,312.972,254.884,312.834z"/>
			<path id="_x3C_Path_x3E__00000159463015596969377310000000091901771922146740_" style="fill:#FFFFFF;" d="M255.048,314.765
				l-0.248-0.293c-0.037-0.044-0.03-0.107,0.016-0.141l0.411-0.308c0.127-0.095,0.313-0.074,0.416,0.047l0,0
				c0.102,0.121,0.083,0.296-0.044,0.392l-0.425,0.318C255.136,314.808,255.079,314.802,255.048,314.765z"/>
			<path id="_x3C_Path_x3E_" style="fill:#F9ECDC;" d="M340.725,317.441l6.656-1.603c0.301-0.072,0.472-0.391,0.366-0.682
				l-0.23-0.632c-0.09-0.246-0.349-0.387-0.604-0.328l-6.673,1.536c-0.302,0.069-0.476,0.386-0.373,0.678l0.246,0.698
				C340.203,317.36,340.467,317.503,340.725,317.441z"/>
			<path style="fill:#F0C66C;" d="M327.219,310.535c-2.145,0.882-15.535,5.891-27.843-0.99c-0.152-0.085-0.25-0.238-0.257-0.412
				c-0.1-2.487-0.513-22.658-0.72-27.816l-8.967,12.848c-0.026,0.031-19.45,14.503-19.45,14.503
				c-0.275,0.204-0.669,0.079-0.776-0.246l-2.641-8.037c-0.065-0.196-0.002-0.412,0.157-0.544l15.587-12.795
				c0.04-0.033,11.894-21.29,15.011-22.59c4.095-1.708,8.434-3.969,12.57-3.48c8.721,1.03,0.636-3.095,19.892,2.173
				c7.617,2.084,16.673,41.469,18.116,50.941c0.038,0.252-0.121,0.489-0.367,0.555l-7.498,2.018
				c-0.259,0.07-0.527-0.077-0.608-0.332l-10.971-34.347l-0.929,28.105C327.52,310.285,327.401,310.46,327.219,310.535z"/>
			<path style="fill:#F3D6C1;" d="M304.455,234.594c0,0-0.337,2.408-3.172,7.42c-2.894,5.117-2.426,12.933,1.57,14.654
				c3.11,1.339,5.412,0.756,5.412,0.756l1.23,8.37l10.347-3.485l-0.772-7.094l2.798-15.794L304.455,234.594z"/>
			<path style="fill:#2F5482;" d="M301.871,229.613c-0.045-0.786,0.73-1.385,1.471-1.118c1.536,0.554,4.545,1.142,10.045,0.678
				c10.506-0.888,15.443,8.403,15.047,14.943c-0.339,5.606-6.494,8.478-8.501,10.738c-0.433,0.488-1.204,0.46-1.638-0.027
				c-1.025-1.15-2.452-2.865-2.47-3.516c-0.029-1.016,2.939-1.029,3.243-4.059c0.303-3.031-3.729-3.617-5.011-1.337
				c-1.282,2.28-0.343-5.795-2.487-6.68C309.597,238.42,302.26,236.36,301.871,229.613z"/>
			<path style="fill:#F3D6C1;" d="M319.821,261.584c0,0,0.8,6.563-5.823,7.154c-6.623,0.591-4.856-6.602-4.856-6.602
				L319.821,261.584z"/>
			<path style="fill:#F9ECDC;" d="M317.014,269.841l-3.206,4.517c-0.305,0.43-0.94,0.442-1.261,0.023l-4-5.229
				C308.547,269.151,313.788,267.945,317.014,269.841z"/>
			<path style="fill:#F9ECDC;" d="M313.099,272.94l4.432,25.171c0.053,0.301,0.019,0.616-0.098,0.889l-3.394,7.996
				c-0.399,0.939-1.49,0.945-1.895,0.01l-3.412-7.875c-0.119-0.276-0.155-0.595-0.102-0.9L313.099,272.94z"/>
			<path style="fill:#E69724;" d="M319.65,260.541c0,0-3.305,7.639-7.697,8.097l6.287,3.746
				C318.24,272.384,325.224,263.27,319.65,260.541z"/>
			<path style="fill:#E69724;" d="M308.79,260.865c0,0,0.463,6.571,4.157,8.019l-5.106,3.5
				C307.841,272.384,303.349,262.189,308.79,260.865z"/>
		</g>
	</g>
	
		<line style="fill:none;stroke:#315782;stroke-linecap:round;stroke-miterlimit:10;" x1="432.842" y1="411.918" x2="67.158" y2="411.918"/>
</g>
</svg>
